<svg width="180" height="63" viewBox="0 0 180 63" fill="none" xmlns="http://www.w3.org/2000/svg">
<g clip-path="url(#clip0)">
<path d="M45.7069 0.30531H34.6136C34.6136 0.30531 27.1081 0.552966 27.1081 11.1006C27.1081 21.8959 34.6136 22.2388 34.6136 22.2388H45.7069V17.9334H37.2869C36.1883 17.8583 35.1638 17.3525 34.4361 16.5261C33.7084 15.6996 33.3363 14.6193 33.4008 13.52H45.7069V9.11299H33.4008C33.3682 8.55474 33.4486 7.99567 33.637 7.46919C33.8254 6.9427 34.118 6.45961 34.4974 6.04881C34.8768 5.63801 35.3351 5.30792 35.8449 5.07828C36.3548 4.84865 36.9057 4.72418 37.4647 4.71233H45.7196L45.7069 0.30531ZM111.066 19.9908V17.9397H117.772C119.442 17.9397 119.886 17.8318 120.312 17.184C120.416 17.0259 120.472 16.8404 120.472 16.6506C120.472 16.4609 120.416 16.2754 120.312 16.1172C119.988 15.4822 119.404 15.0948 117.137 13.9772C112.755 11.7991 111.53 10.5037 111.111 7.62705C110.692 4.75042 111.835 2.08335 113.924 1.01653C115.143 0.381509 116.171 0.292617 121.27 0.292617H126.058V4.70597H120.445C118.857 4.70597 118.616 4.78218 118.261 5.01714C118.047 5.16324 117.886 5.37424 117.801 5.61896C117.716 5.86368 117.713 6.12912 117.791 6.37607C117.949 7.01108 118.705 7.55719 120.87 8.65577C124.979 10.7386 126.249 11.9579 126.941 14.4598C127.291 15.5349 127.291 16.6932 126.941 17.7683C126.338 20.0861 125.233 21.3371 123.226 21.9594C122.445 22.2007 121.791 22.2324 116.597 22.2324H111.015L111.066 19.9908ZM128.636 19.9908V17.9397H135.348C137.018 17.9397 137.463 17.8318 137.888 17.184C137.993 17.0259 138.049 16.8404 138.049 16.6506C138.049 16.4609 137.993 16.2754 137.888 16.1172C137.564 15.4822 136.98 15.0948 134.713 13.9772C130.332 11.7991 129.106 10.5037 128.687 7.62705C128.268 4.75042 129.411 2.08335 131.5 1.01653C132.719 0.381509 133.748 0.292617 138.847 0.292617H143.635V4.70597H138.021C136.434 4.70597 136.193 4.78218 135.837 5.01714C135.623 5.16324 135.462 5.37424 135.378 5.61896C135.293 5.86368 135.289 6.12912 135.367 6.37607C135.526 7.01108 136.282 7.55719 138.447 8.65577C142.555 10.7386 143.825 11.9579 144.517 14.4598C144.867 15.5349 144.867 16.6932 144.517 17.7683C143.914 20.0861 142.809 21.3371 140.803 21.9594C140.022 22.2007 139.368 22.2324 134.173 22.2324H128.592L128.636 19.9908ZM174.806 59.9969L176.013 57.1837L177.194 59.9969H174.806ZM177.759 61.3749C177.868 61.5981 177.937 61.8389 177.962 62.0861C177.961 62.1416 177.947 62.1962 177.922 62.2457C177.897 62.2952 177.86 62.3383 177.816 62.3718C177.645 62.4718 177.449 62.5203 177.251 62.5115V62.702H179.994V62.5369C179.762 62.5301 179.539 62.4476 179.359 62.302C179.122 62.0403 178.941 61.7336 178.826 61.4002L176.406 55.6152H176.229L173.784 61.3304C173.655 61.6956 173.459 62.0336 173.206 62.3274C173.038 62.4409 172.843 62.5088 172.641 62.5242V62.7147H174.832V62.5369C174.61 62.5404 174.391 62.4857 174.197 62.3782C174.151 62.347 174.113 62.3054 174.087 62.2568C174.06 62.2083 174.046 62.1541 174.044 62.0988C174.063 61.8777 174.123 61.6622 174.222 61.4637L174.692 60.3652H177.384L177.759 61.3749ZM63.4611 11.2086V0.30531H66.8139C69.8809 0.356111 70.2364 0.387853 71.0111 0.692661C72.9813 1.56933 74.5625 3.13698 75.456 5.09968L75.9894 6.17286L76.472 5.1759C77.3553 3.18799 78.9367 1.59291 80.9169 0.692661C81.6916 0.387853 82.0536 0.349761 85.0444 0.30531H88.359V22.2134H81.8313V14.8154C81.8313 9.44955 81.8313 7.57626 81.8313 7.2778C81.5583 7.2778 80.3327 8.40812 79.9264 9.25269C79.1771 10.7259 79.139 11.2911 79.1326 16.9554V22.2261H72.8018V16.9428C72.8018 11.3419 72.7383 10.5418 72.0525 9.19554C71.5441 8.43252 70.8824 7.78373 70.1095 7.29049V22.2324H63.4865L63.4611 11.2086ZM169.199 62.5369C169.037 62.5369 168.877 62.4953 168.736 62.4163C168.641 62.3687 168.565 62.2904 168.52 62.194C168.461 61.9661 168.437 61.7305 168.45 61.4955V57.0059C168.421 56.7368 168.465 56.4649 168.577 56.2185C168.655 56.1291 168.754 56.0599 168.864 56.0168C168.975 55.9737 169.094 55.9579 169.212 55.9709H169.466V55.7803H166.463V55.9709H166.71C166.875 55.9704 167.036 56.0119 167.18 56.0915C167.273 56.1402 167.346 56.2184 167.39 56.3138C167.449 56.5416 167.472 56.7772 167.459 57.0123V61.5018C167.486 61.7709 167.442 62.0423 167.332 62.2893C167.254 62.3786 167.156 62.4478 167.045 62.491C166.935 62.5341 166.815 62.5499 166.697 62.5369H166.463V62.7274H169.441V62.5369H169.199ZM162.018 55.6089C162.003 55.725 161.957 55.8349 161.884 55.9264C161.826 55.9806 161.748 56.0102 161.668 56.009C161.526 55.9911 161.389 55.948 161.262 55.8819C160.893 55.7109 160.493 55.6179 160.087 55.6089C159.548 55.5892 159.023 55.7832 158.627 56.1487C158.446 56.3078 158.302 56.5031 158.202 56.722C158.103 56.9408 158.05 57.1783 158.049 57.4187C158.047 57.6936 158.115 57.9645 158.246 58.2061C158.392 58.4535 158.587 58.6694 158.817 58.8411C159.221 59.1352 159.646 59.4004 160.087 59.6349C160.678 59.9715 161.046 60.1874 161.179 60.2699C161.36 60.3984 161.51 60.5654 161.618 60.7589C161.707 60.9179 161.755 61.097 161.757 61.2796C161.757 61.4316 161.724 61.5819 161.661 61.72C161.597 61.8581 161.504 61.9808 161.389 62.0797C161.105 62.317 160.742 62.4373 160.373 62.4163C160.019 62.4188 159.67 62.3337 159.357 62.1686C159.072 62.0247 158.833 61.8049 158.665 61.5336C158.479 61.1832 158.356 60.8027 158.303 60.4096H158.112V62.7909H158.303C158.312 62.6767 158.351 62.567 158.417 62.4734C158.444 62.4472 158.476 62.4268 158.511 62.4137C158.546 62.4006 158.583 62.395 158.62 62.3972C158.837 62.427 159.05 62.4803 159.255 62.556C159.464 62.6287 159.676 62.6902 159.89 62.7401C160.079 62.7722 160.27 62.787 160.462 62.7846C161.041 62.8082 161.607 62.6029 162.037 62.2131C162.234 62.0459 162.394 61.8379 162.503 61.6033C162.613 61.3687 162.67 61.1131 162.672 60.8541C162.673 60.5781 162.607 60.3058 162.481 60.0604C162.347 59.8116 162.161 59.595 161.935 59.4254C161.511 59.1243 161.065 58.8548 160.602 58.6189C160.046 58.3622 159.535 58.0169 159.09 57.5965C158.948 57.4376 158.869 57.232 158.868 57.0186C158.87 56.878 158.902 56.7393 158.962 56.6122C159.023 56.4851 159.11 56.3724 159.217 56.282C159.458 56.0628 159.774 55.9446 160.1 55.9518C160.42 55.9541 160.735 56.0371 161.014 56.1931C161.294 56.34 161.528 56.5593 161.694 56.8281C161.874 57.1697 161.986 57.5427 162.024 57.9267H162.214V55.5263L162.018 55.6089ZM153.09 55.6089C153.073 55.7256 153.025 55.8356 152.95 55.9264C152.891 55.9806 152.814 56.0102 152.734 56.009C152.592 55.9909 152.455 55.9479 152.328 55.8819C151.959 55.7109 151.559 55.6179 151.153 55.6089C150.614 55.5898 150.089 55.7838 149.692 56.1487C149.514 56.3086 149.37 56.5043 149.272 56.723C149.174 56.9418 149.122 57.1788 149.121 57.4187C149.117 57.693 149.183 57.9638 149.311 58.2061C149.458 58.4533 149.653 58.6691 149.883 58.8411C150.287 59.1351 150.712 59.4004 151.153 59.6349C151.527 59.8281 151.892 60.04 152.245 60.2699C152.424 60.3997 152.574 60.5665 152.683 60.7589C152.773 60.918 152.821 61.097 152.823 61.2796C152.823 61.4322 152.789 61.5829 152.724 61.7211C152.659 61.8593 152.565 61.9817 152.448 62.0797C152.167 62.316 151.806 62.4363 151.439 62.4163C151.085 62.4193 150.736 62.3342 150.423 62.1686C150.138 62.0252 149.898 61.8054 149.731 61.5336C149.545 61.1832 149.422 60.8027 149.369 60.4096H149.178V62.7909H149.369C149.376 62.6773 149.413 62.5677 149.477 62.4734C149.503 62.4475 149.535 62.4274 149.57 62.4143C149.605 62.4012 149.643 62.3954 149.68 62.3972C149.897 62.4268 150.11 62.4801 150.315 62.556C150.523 62.6287 150.735 62.6902 150.95 62.7401C151.136 62.7718 151.326 62.7867 151.515 62.7846C152.097 62.8092 152.665 62.6039 153.096 62.2131C153.294 62.0459 153.453 61.8379 153.563 61.6033C153.672 61.3687 153.73 61.1131 153.731 60.8541C153.73 60.5776 153.662 60.3055 153.534 60.0604C153.4 59.8115 153.214 59.5948 152.988 59.4254C152.563 59.125 152.118 58.8555 151.655 58.6189C151.099 58.3612 150.589 58.016 150.143 57.5965C150.002 57.4367 149.924 57.2317 149.921 57.0186C149.923 56.878 149.956 56.7395 150.016 56.6125C150.076 56.4854 150.163 56.3727 150.27 56.282C150.511 56.0628 150.827 55.9446 151.153 55.9518C151.473 55.9541 151.788 56.0371 152.067 56.1931C152.348 56.3384 152.583 56.5581 152.747 56.8281C152.928 57.1691 153.04 57.5424 153.077 57.9267H153.267V55.5263L153.09 55.6089ZM143.177 55.9582C143.287 55.9495 143.397 55.9649 143.501 56.0033C143.604 56.0417 143.697 56.1021 143.774 56.1804C143.902 56.4312 143.952 56.7138 143.92 56.9932V59.8064C143.95 60.3368 143.884 60.8683 143.724 61.3749C143.573 61.7057 143.313 61.9747 142.987 62.1369C142.613 62.3397 142.193 62.4425 141.768 62.4353C141.456 62.4451 141.147 62.3797 140.866 62.2448C140.642 62.134 140.45 61.9679 140.307 61.7622C140.159 61.5123 140.068 61.2325 140.041 60.943C139.994 60.6361 139.968 60.3263 139.964 60.0159V56.9869C139.94 56.7241 139.984 56.4594 140.091 56.2185C140.164 56.122 140.262 56.0465 140.373 55.9997C140.485 55.9528 140.606 55.9363 140.726 55.9518H140.993V55.7613H137.99V55.9518H138.25C138.354 55.9411 138.459 55.9531 138.557 55.9871C138.656 56.0211 138.746 56.0762 138.821 56.1487C138.97 56.4014 139.032 56.6956 138.999 56.9869V59.7048C138.969 60.2813 139.025 60.8591 139.164 61.4193C139.321 61.8543 139.616 62.2265 140.003 62.4798C140.528 62.7759 141.128 62.9128 141.73 62.8735C142.309 62.904 142.884 62.7602 143.381 62.4607C143.752 62.2272 144.037 61.8796 144.193 61.4701C144.353 60.9436 144.424 60.3942 144.403 59.8445V57.025C144.379 56.7743 144.416 56.5217 144.511 56.2884C144.576 56.1793 144.669 56.0898 144.781 56.0295C144.893 55.9691 145.019 55.9401 145.146 55.9455H145.406V55.755H142.949V55.9455L143.177 55.9582ZM130.351 56.2566C130.616 56.1978 130.886 56.1638 131.157 56.155C131.356 56.1464 131.554 56.1785 131.74 56.2495C131.925 56.3205 132.094 56.4288 132.237 56.5678C132.372 56.7066 132.479 56.8717 132.548 57.053C132.618 57.2342 132.651 57.4278 132.643 57.6219C132.653 57.8296 132.616 58.0369 132.535 58.2282C132.453 58.4196 132.33 58.59 132.173 58.7268C131.741 59.044 131.21 59.197 130.675 59.1586H130.389L130.351 56.2566ZM135.285 62.5306C134.96 62.5073 134.645 62.4095 134.364 62.2448C134.029 61.992 133.741 61.6825 133.513 61.3304L132.097 59.3618C132.579 59.2762 133.023 59.0433 133.367 58.6951C133.642 58.3908 133.791 57.9938 133.786 57.5838C133.795 57.2052 133.664 56.8366 133.418 56.5487C133.185 56.2688 132.876 56.0617 132.529 55.9518C131.994 55.8255 131.445 55.7721 130.897 55.7931H128.357V55.9836H128.617C128.727 55.9749 128.837 55.9903 128.94 56.0287C129.043 56.0671 129.137 56.1275 129.214 56.2058C129.34 56.4571 129.388 56.7398 129.354 57.0186V61.5082C129.378 61.7651 129.341 62.0241 129.246 62.2639C129.174 62.3629 129.078 62.4414 128.967 62.4915C128.855 62.5417 128.732 62.5617 128.611 62.5496H128.363V62.7401H131.341V62.5369H131.068C130.961 62.5454 130.852 62.5299 130.751 62.4915C130.65 62.453 130.559 62.3926 130.484 62.3147C130.358 62.0637 130.309 61.7807 130.344 61.5018V59.4825H130.503H130.649H131.075L133.424 62.7338H135.278L135.285 62.5306ZM75.7926 62.7211L78.4722 56.8726V61.5209C78.4978 61.7763 78.4585 62.034 78.3579 62.2702C78.2846 62.3662 78.1874 62.4414 78.076 62.4882C77.9646 62.535 77.8429 62.5518 77.7229 62.5369H77.4753V62.7274H80.428V62.5369H80.1867C80.0776 62.5455 79.9679 62.5307 79.8649 62.4935C79.762 62.4563 79.6682 62.3975 79.5898 62.321C79.4629 62.0747 79.412 61.7962 79.4438 61.5209V56.9805C79.4187 56.7251 79.458 56.4675 79.5581 56.2312C79.6327 56.1366 79.73 56.0625 79.8411 56.0159C79.9522 55.9692 80.0733 55.9515 80.1931 55.9645H80.4343V55.774H78.4659L75.9831 61.2161L73.4431 55.774H71.4747V55.9645C71.6913 55.9492 71.9086 55.984 72.1097 56.0661C72.2211 56.1181 72.3125 56.2051 72.37 56.3138C72.4518 56.526 72.4865 56.7535 72.4716 56.9805V61.5209C72.4951 61.7762 72.4558 62.0335 72.3573 62.2702C72.2831 62.3653 72.1858 62.4397 72.0746 62.4864C71.9634 62.5331 71.8421 62.5505 71.7223 62.5369H71.4747V62.7274H73.894V62.5369H73.6463C73.5362 62.5465 73.4252 62.5321 73.3211 62.4949C73.217 62.4576 73.1222 62.3983 73.0431 62.321C72.923 62.0726 72.8767 61.7949 72.9097 61.5209V56.8726L75.5957 62.7211H75.7926ZM62.2292 56.2566C62.4943 56.1978 62.7643 56.1637 63.0357 56.155C63.2343 56.146 63.4327 56.178 63.6184 56.249C63.8041 56.32 63.9732 56.4285 64.1152 56.5678C64.2513 56.7064 64.3576 56.8715 64.4275 57.0528C64.4974 57.2341 64.5294 57.4278 64.5215 57.6219C64.5261 57.8316 64.4827 58.0396 64.3946 58.2299C64.3066 58.4203 64.1763 58.5881 64.0136 58.7205C63.5813 59.0381 63.05 59.1912 62.515 59.1523H62.2292V56.2566ZM67.1631 62.5306C66.8384 62.507 66.5234 62.4093 66.2424 62.2448C65.9104 61.9908 65.6247 61.6815 65.3978 61.3304L63.9755 59.3618C64.4577 59.2766 64.9015 59.0436 65.2454 58.6951C65.5208 58.3911 65.6706 57.9939 65.6645 57.5838C65.6735 57.2052 65.5423 56.8366 65.2962 56.5487C65.0631 56.2688 64.7546 56.0617 64.4072 55.9518C63.8709 55.825 63.3197 55.7716 62.769 55.7931H60.229V55.9836H60.4894C60.599 55.9749 60.7093 55.9903 60.8124 56.0287C60.9155 56.0671 61.0089 56.1275 61.0863 56.2058C61.2114 56.4572 61.2599 56.7399 61.226 57.0186V61.5082C61.2507 61.7651 61.2137 62.0242 61.118 62.2639C61.0464 62.3629 60.9501 62.4414 60.8387 62.4915C60.7272 62.5417 60.6046 62.5617 60.483 62.5496H60.2227V62.7401H63.2008V62.5369H62.9595C62.8517 62.5454 62.7434 62.5299 62.6424 62.4915C62.5414 62.453 62.4501 62.3926 62.3753 62.3147C62.2473 62.0641 62.1965 61.7813 62.2292 61.5018V59.4825H62.388H62.534H62.9595L65.3089 62.7338H67.1631V62.5306ZM53.9172 56.1487C54.161 56.1359 54.4053 56.1616 54.6411 56.2249C54.7985 56.2874 54.9335 56.3958 55.0285 56.536C55.1499 56.7729 55.2315 57.0282 55.2698 57.2917H55.4666L55.3904 55.7677H50.0311V55.9582H50.2788C50.393 55.9444 50.5089 55.9554 50.6184 55.9905C50.728 56.0255 50.8287 56.0838 50.9138 56.1614C51.0323 56.4148 51.0784 56.6961 51.0471 56.9742V61.4892C51.0581 61.7151 51.0389 61.9414 50.99 62.1623C50.9513 62.2708 50.8715 62.3598 50.7677 62.4099C50.6253 62.4865 50.4659 62.5258 50.3042 62.5242H50.0565V62.7147H55.4095L56.0127 60.9684H55.8095C55.6452 61.317 55.4313 61.64 55.1745 61.9273C55.0318 62.0753 54.8553 62.1864 54.6602 62.2512C54.3797 62.3184 54.0911 62.3462 53.803 62.3337H52.6219C52.4901 62.3437 52.3578 62.3242 52.2345 62.2766C52.1688 62.2423 52.1172 62.1862 52.0885 62.1178C52.0512 61.9319 52.0384 61.7419 52.0504 61.5527V59.2602H53.5807C53.7977 59.2502 54.0142 59.287 54.2157 59.3682C54.3456 59.4247 54.4529 59.5231 54.5205 59.6476C54.5942 59.8527 54.6432 60.0659 54.6665 60.2826H54.857V57.8632H54.6665C54.6802 58.167 54.5729 58.4639 54.3681 58.6887C54.1323 58.8389 53.8522 58.9038 53.5744 58.8729H52.044V56.1233L53.9172 56.1487ZM40.3158 57.0059C40.3035 56.7776 40.3249 56.5486 40.3793 56.3265C40.4185 56.2183 40.4982 56.1295 40.6016 56.0788C40.7442 56.003 40.9035 55.9637 41.0651 55.9645H41.3191V55.774H38.341V55.9645H38.5886C38.753 55.9641 38.9147 56.0056 39.0585 56.0852C39.1518 56.133 39.2258 56.2115 39.2681 56.3074C39.3267 56.5354 39.3502 56.7709 39.3379 57.0059V61.4955C39.3665 61.7667 39.3227 62.0405 39.2109 62.2893C39.1325 62.3782 39.034 62.4471 38.9235 62.4902C38.813 62.5333 38.6939 62.5493 38.5759 62.5369H38.3283V62.7274H41.3064V62.5369H41.0524C40.8901 62.5374 40.7304 62.4959 40.5889 62.4163C40.4929 62.37 40.4164 62.2913 40.373 62.194C40.3135 61.9662 40.29 61.7305 40.3031 61.4955V59.3618H43.5352V61.4764C43.5656 61.7477 43.5217 62.022 43.4082 62.2702C43.3301 62.3596 43.2316 62.4288 43.1211 62.4719C43.0105 62.515 42.8912 62.5308 42.7732 62.5179H42.5256V62.7084H45.4973V62.5369H45.2497C45.0833 62.5376 44.9194 62.4961 44.7734 62.4163C44.6808 62.3676 44.607 62.2894 44.5639 62.194C44.5049 61.9661 44.4813 61.7305 44.494 61.4955V57.0059C44.4825 56.7779 44.5017 56.5494 44.5512 56.3265C44.5898 56.2179 44.6697 56.1289 44.7734 56.0788C44.9184 56.003 45.0797 55.9637 45.2433 55.9645H45.491V55.774H42.5192V55.9645H42.7669C42.9293 55.9631 43.0892 56.0047 43.2304 56.0852C43.325 56.1303 43.4012 56.2065 43.4463 56.3011C43.5029 56.5315 43.5243 56.7691 43.5098 57.0059V58.9935H40.2777L40.3158 57.0059ZM28.0986 55.774L28.0161 57.406H28.2129C28.2206 57.1412 28.2972 56.8829 28.4352 56.6567C28.543 56.4855 28.7034 56.3541 28.8924 56.282C29.1183 56.2242 29.3516 56.2007 29.5845 56.2122H30.4227V61.5209C30.447 61.7763 30.4077 62.0337 30.3084 62.2702C30.2342 62.3653 30.1369 62.4397 30.0257 62.4864C29.9145 62.5331 29.7932 62.5505 29.6734 62.5369H29.4258V62.7274H32.3785V62.5369H32.1372C32.0281 62.5447 31.9186 62.5295 31.8158 62.4924C31.713 62.4552 31.6191 62.3968 31.5403 62.321C31.4173 62.0734 31.3688 61.7955 31.4006 61.5209V56.1868H32.3848C32.6235 56.1758 32.8612 56.2237 33.077 56.3265C33.2598 56.4261 33.4082 56.5789 33.5024 56.7646C33.5873 56.9666 33.6388 57.1811 33.6548 57.3996H33.8516L33.7754 55.7677L28.0986 55.774ZM164.5 37.53V41.3401L172.755 50.6812H179.981L172.241 41.9052C173.352 41.7147 177.435 40.6352 177.435 35.3328C177.435 28.735 171.542 28.7223 171.542 28.7223H157.496V50.6558H163.789V33.1293H169.002C169.586 33.1293 170.146 33.3611 170.558 33.7738C170.971 34.1864 171.203 34.7461 171.203 35.3296C171.203 35.9132 170.971 36.4729 170.558 36.8855C170.146 37.2982 169.586 37.53 169.002 37.53H164.5ZM113.314 28.7287V62.7401H119.613V50.6748H126.655C126.655 50.6748 136.021 50.6177 136.021 39.689C136.021 28.7604 126.668 28.7477 126.668 28.7477L113.314 28.7287ZM119.632 33.1357H123.607C123.607 33.1357 129.798 33.1357 129.798 39.5811C129.798 46.3504 123.607 46.3504 123.607 46.3504H119.632V33.1357ZM51.9678 28.7287V50.6621H64.0771V46.3567H58.2415V28.7287H51.9678ZM48.3167 0.30531V22.2388H61.0164V17.9334H54.5903V0.30531H48.3167ZM89.0384 28.7413V62.7528H95.3439V50.6875H102.392C102.392 50.6875 111.758 50.6304 111.758 39.7017C111.758 28.7731 102.411 28.7604 102.411 28.7604L89.0384 28.7413ZM95.3566 33.1484H99.3316C99.3316 33.1484 105.523 33.1484 105.523 39.5938C105.523 46.3631 99.3316 46.3631 99.3316 46.3631H95.3439L95.3566 33.1484ZM27.997 28.7413V50.6748H34.2898V41.3083L42.5446 50.6494H50.4121L39.8777 38.7873L50.4058 28.7223H42.5446L34.2898 36.6092V28.7223L27.997 28.7413ZM65.7344 34.3612C66.5559 34.7562 67.4047 35.0915 68.2743 35.3646C69.0014 34.0922 69.8522 32.8947 70.8143 31.7894C70.2457 31.4914 69.7202 31.1176 69.2522 30.6781C67.8244 31.6279 66.6216 32.8785 65.728 34.3422L65.7344 34.3612ZM69.792 30.3543C70.2266 30.745 70.7113 31.076 71.2334 31.3386C72.0204 30.4665 72.8624 29.6456 73.7543 28.8811C72.3538 29.1196 71.0087 29.6125 69.7856 30.3352L69.792 30.3543ZM77.6785 28.8811C78.5772 29.6379 79.4256 30.4524 80.2184 31.3195C80.7454 31.056 81.2345 30.7228 81.6726 30.3289C80.4414 29.6052 79.0874 29.1144 77.6785 28.8811ZM82.1679 30.6528C81.6963 31.0953 81.1665 31.4714 80.5931 31.7704C81.5513 32.8787 82.4018 34.0758 83.133 35.3455C84.0037 35.0703 84.8527 34.7307 85.673 34.3295C84.7833 32.8652 83.585 31.6126 82.1615 30.6591L82.1679 30.6528ZM85.6984 46.5282C84.8781 46.1288 84.0291 45.7913 83.1584 45.5185C82.4272 46.7861 81.5767 47.9811 80.6185 49.0873C81.1865 49.3836 81.712 49.7553 82.1806 50.1922C83.6068 49.234 84.8054 47.9746 85.692 46.5028L85.6984 46.5282ZM81.6281 50.4716C81.1933 50.0829 80.7086 49.754 80.1867 49.4937C79.4138 50.3503 78.5866 51.1563 77.7103 51.9068C79.0923 51.6694 80.4197 51.1831 81.6281 50.4716ZM73.7035 51.9004C72.8287 51.1505 72.0016 50.3467 71.227 49.4937C70.7128 49.7545 70.2346 50.0811 69.8046 50.4653C71.0034 51.1844 72.322 51.6813 73.6971 51.9321L73.7035 51.9004ZM69.2586 50.1414C69.7212 49.7075 70.2402 49.338 70.8016 49.0428C69.8396 47.9374 68.9888 46.7399 68.2616 45.4677C67.3913 45.7388 66.5423 46.0742 65.7217 46.471C66.6188 47.9528 67.8332 49.2172 69.2776 50.1732L69.2586 50.1414ZM74.5798 51.875C74.1607 51.1384 73.6019 50.0335 73.0431 48.8079C72.6097 48.9203 72.1852 49.0646 71.7731 49.2397C72.6471 50.198 73.5917 51.0895 74.5988 51.9068L74.5798 51.875ZM71.354 48.7761C71.826 48.5651 72.3144 48.393 72.8145 48.2617C72.3001 47.0933 71.7922 45.8487 71.3921 44.7184C70.5354 44.8636 69.6874 45.0566 68.8522 45.2962C69.5764 46.5459 70.4207 47.722 71.3731 48.8079L71.354 48.7761ZM82.5489 45.2962C81.7139 45.0571 80.8658 44.8663 80.0089 44.7247C79.6152 45.8551 79.1072 47.0997 78.5929 48.2681C79.0926 48.4005 79.581 48.5725 80.0534 48.7825C80.9998 47.7138 81.8418 46.557 82.5679 45.328L82.5489 45.2962ZM79.6089 49.2333C79.1964 49.0593 78.772 48.915 78.3389 48.8015C77.7801 50.0271 77.2277 51.132 76.8149 51.875C77.8157 51.0756 78.7559 50.2033 79.6279 49.2651L79.6089 49.2333ZM79.3803 44.6295C78.2544 44.4726 77.1197 44.3878 75.9831 44.3755V47.9315C76.6508 47.9472 77.3159 48.0216 77.9706 48.1538C78.504 47.0108 79.0056 45.7852 79.3993 44.6612L79.3803 44.6295ZM77.7229 48.6745C77.1488 48.5683 76.5669 48.5088 75.9831 48.4967V51.7607H76.1545C76.5863 51.1066 77.1578 49.9827 77.742 48.7063L77.7229 48.6745ZM75.3925 44.3818C74.2516 44.393 73.1126 44.4778 71.9827 44.6358C72.3763 45.7598 72.8843 46.9854 73.3923 48.1284C74.0512 47.9956 74.7206 47.9213 75.3925 47.9061V44.3818ZM75.3925 48.4967C74.8043 48.5109 74.2183 48.5725 73.64 48.6809C74.2305 49.9509 74.802 51.0876 75.2147 51.7734H75.3925V48.5094V48.4967ZM74.5798 28.9128C73.5778 29.7222 72.6375 30.6053 71.7668 31.5545C72.1794 31.7282 72.6038 31.8725 73.0367 31.9863C73.64 30.7861 74.1924 29.6812 74.5988 28.9382L74.5798 28.9128ZM71.3731 32.0561C70.4157 33.1311 69.5651 34.2966 68.8331 35.536C69.6684 35.7738 70.5164 35.9646 71.3731 36.1075C71.7731 34.9772 72.2747 33.7326 72.7954 32.5641C72.3089 32.4319 71.8333 32.262 71.3731 32.0561ZM82.5679 35.536C81.8364 34.2963 80.9857 33.1308 80.028 32.0561C79.5557 32.2664 79.0673 32.4384 78.5675 32.5705C79.0818 33.7326 79.5898 34.9772 79.9835 36.1075C80.8554 35.9622 81.7183 35.7672 82.5679 35.5233V35.536ZM79.6279 31.5989C78.7586 30.6483 77.8182 29.7652 76.8149 28.9573C77.2213 29.6939 77.7738 30.7988 78.3389 32.0244C78.7788 31.9103 79.2096 31.7639 79.6279 31.5862V31.5989ZM79.3993 36.2028C78.9993 35.0788 78.4976 33.8532 77.9897 32.7102C77.3372 32.843 76.6741 32.9174 76.0085 32.9325V36.4568C77.1435 36.4392 78.2761 36.3479 79.3993 36.1837V36.2028ZM77.742 32.1577C77.2735 31.1014 76.7521 30.0692 76.1799 29.0652H76.0085V32.3292C76.5903 32.3145 77.17 32.2529 77.742 32.145V32.1577ZM75.4116 36.4505V32.9261C74.7394 32.9092 74.07 32.8327 73.4114 32.6975C72.897 33.8405 72.3954 35.0725 71.9954 36.1964C73.1278 36.3492 74.2689 36.4298 75.4116 36.4377V36.4505ZM75.4116 32.3355V29.0716H75.2338C74.8274 29.7574 74.2496 30.8814 73.659 32.1641C74.2379 32.2655 74.8239 32.3207 75.4116 32.3292V32.3355ZM64.0263 40.4193C64.0238 42.3671 64.5108 44.2842 65.4423 45.9948C66.2645 45.5998 67.1132 45.2624 67.9822 44.9851C67.6927 44.4378 67.4362 43.8738 67.2139 43.2959C67.2052 43.2583 67.2052 43.2192 67.2139 43.1816C67.2094 43.11 67.2314 43.0392 67.2758 42.9828C67.3201 42.9264 67.3836 42.8883 67.4543 42.8757C67.5249 42.8632 67.5977 42.877 67.6588 42.9147C67.7199 42.9524 67.7649 43.0112 67.7854 43.08C68.0191 43.6736 68.2884 44.2525 68.5918 44.8136C69.4678 44.5508 70.3583 44.3387 71.2588 44.1786C71.1508 43.8547 71.0556 43.5436 70.973 43.2451C70.968 43.2157 70.968 43.1857 70.973 43.1562C70.9654 43.0812 70.9871 43.0061 71.0336 42.9467C71.08 42.8873 71.1477 42.8482 71.2223 42.8375C71.297 42.8269 71.3729 42.8455 71.4341 42.8895C71.4953 42.9335 71.5372 42.9995 71.5509 43.0737C71.6334 43.3912 71.7414 43.7087 71.8557 44.0833C73.0503 43.9094 74.2552 43.816 75.4624 43.8039V43.1689C75.4728 43.0981 75.5084 43.0333 75.5626 42.9865C75.6168 42.9396 75.686 42.9139 75.7577 42.9139C75.8293 42.9139 75.8985 42.9396 75.9527 42.9865C76.007 43.0333 76.0425 43.0981 76.0529 43.1689V43.8039C77.2558 43.8173 78.4565 43.9106 79.647 44.0833C79.7613 43.7341 79.8692 43.3975 79.9581 43.0864C79.9813 43.0225 80.0256 42.9684 80.0837 42.9332C80.1418 42.8979 80.2102 42.8835 80.2776 42.8924C80.345 42.9013 80.4073 42.9329 80.4543 42.982C80.5013 43.0312 80.5301 43.0948 80.5359 43.1626C80.54 43.1921 80.54 43.222 80.5359 43.2515C80.4534 43.5436 80.3581 43.8865 80.2565 44.1786C81.1567 44.3403 82.0471 44.5523 82.9235 44.8136C83.2255 44.2549 83.4927 43.678 83.7236 43.0864C83.744 43.0176 83.7891 42.9587 83.8502 42.9211C83.9112 42.8834 83.984 42.8695 84.0547 42.8821C84.1253 42.8946 84.1889 42.9327 84.2332 42.9892C84.2776 43.0456 84.2996 43.1164 84.2951 43.188C84.3028 43.2257 84.3028 43.2646 84.2951 43.3023C84.0657 43.8791 83.805 44.443 83.514 44.9914C84.3833 45.2706 85.232 45.6101 86.054 46.0075C86.9799 44.2961 87.4647 42.381 87.4647 40.4352C87.4647 38.4894 86.9799 36.5743 86.054 34.8629C85.2317 35.2614 84.3831 35.6029 83.514 35.8853C83.8051 36.4336 84.0658 36.9975 84.2951 37.5744C84.3017 37.6122 84.3017 37.6509 84.2951 37.6887C84.2996 37.7603 84.2776 37.8311 84.2332 37.8875C84.1889 37.944 84.1253 37.9821 84.0547 37.9946C83.984 38.0072 83.9112 37.9933 83.8502 37.9556C83.7891 37.918 83.744 37.8591 83.7236 37.7903C83.4914 37.1992 83.2243 36.6224 82.9235 36.0631C82.0454 36.3263 81.1528 36.5383 80.2502 36.6981C80.3582 37.022 80.4534 37.3331 80.5359 37.6316C80.54 37.6611 80.54 37.691 80.5359 37.7205C80.5301 37.7882 80.5013 37.8519 80.4543 37.901C80.4073 37.9502 80.345 37.9818 80.2776 37.9907C80.2102 37.9995 80.1418 37.9852 80.0837 37.9499C80.0256 37.9146 79.9813 37.8606 79.9581 37.7967C79.8692 37.4792 79.7676 37.1617 79.647 36.7934C78.4567 36.9681 77.2559 37.0615 76.0529 37.0728V37.7078C76.0513 37.7841 76.0198 37.8568 75.9652 37.9102C75.9106 37.9636 75.8372 37.9936 75.7608 37.9935C75.6838 37.9936 75.6098 37.9639 75.5542 37.9107C75.4986 37.8574 75.4657 37.7847 75.4624 37.7078V37.0728C74.2574 37.0601 73.0546 36.9668 71.862 36.7934C71.7477 37.1426 71.6398 37.4855 71.5572 37.803C71.5435 37.8772 71.5017 37.9432 71.4404 37.9872C71.3792 38.0312 71.3033 38.0498 71.2287 38.0392C71.154 38.0285 71.0864 37.9894 71.0399 37.93C70.9935 37.8706 70.9718 37.7955 70.9794 37.7205C70.9746 37.691 70.9746 37.661 70.9794 37.6316C71.0619 37.3395 71.1572 36.9966 71.2651 36.6981C70.3645 36.5385 69.474 36.3265 68.5982 36.0631C68.2942 36.6239 68.0249 37.2029 67.7917 37.7967C67.7649 37.8582 67.7182 37.9088 67.6591 37.9405C67.6 37.9722 67.5319 37.983 67.4659 37.9712C67.3999 37.9595 67.3398 37.9259 67.2952 37.8758C67.2506 37.8257 67.2242 37.762 67.2202 37.6951C67.2122 37.6553 67.2122 37.6142 67.2202 37.5744C67.439 36.991 67.6913 36.4206 67.9759 35.8662C67.1066 35.5871 66.2579 35.2476 65.4359 34.8502C64.5097 36.5579 64.0251 38.4702 64.0263 40.413V40.4193ZM77.0308 38.5143H79.6343C79.7873 38.51 79.9395 38.5366 80.082 38.5926C80.2244 38.6486 80.3541 38.7328 80.4632 38.8402C80.5723 38.9475 80.6586 39.0758 80.7169 39.2173C80.7752 39.3588 80.8044 39.5106 80.8026 39.6636C80.8119 39.9504 80.7112 40.2298 80.5211 40.4447C80.331 40.6595 80.066 40.7936 79.7803 40.8194C79.9009 40.94 80.8026 42.3371 80.8026 42.3371H79.5644L78.5421 40.813V40.0383H79.1771C79.2276 40.0383 79.2777 40.0282 79.3243 40.0087C79.371 39.9891 79.4133 39.9605 79.4487 39.9245C79.4842 39.8884 79.5121 39.8457 79.5309 39.7987C79.5497 39.7517 79.5589 39.7015 79.5581 39.6509C79.5607 39.6004 79.5529 39.55 79.5351 39.5026C79.5174 39.4553 79.4901 39.4121 79.455 39.3758C79.4199 39.3394 79.3776 39.3107 79.3309 39.2914C79.2842 39.2721 79.234 39.2626 79.1834 39.2636H78.2627V42.3244H77.0245V38.5143H77.0308ZM81.1582 38.5143H81.9456L83.3235 40.051L84.6951 38.5143H85.4825V42.3244H84.2125V40.4193L83.2918 41.4163L82.3647 40.4193V42.3244H81.0947L81.1582 38.5143ZM76.7133 38.5143V39.289H75.2973C75.1185 39.323 74.9572 39.4184 74.8413 39.5587C74.7254 39.699 74.662 39.8754 74.6623 40.0573H76.7133V40.8321H74.6623C74.6642 41.0142 74.7281 41.1902 74.8436 41.3311C74.959 41.472 75.1191 41.5692 75.2973 41.6068H76.7133V42.3561H74.8782C74.8782 42.3561 73.4304 42.3053 73.4304 40.4066C73.4304 38.5079 74.8782 38.5015 74.8782 38.5015L76.7133 38.5143ZM69.2522 38.5143H70.5222V40.051H71.8493V38.5143H73.1193V42.3244H71.8493V40.8003H70.4523V42.3244H69.1824L69.2522 38.5143ZM65.6709 38.5143H68.9538V39.2699H67.9314V42.3434H66.6996V39.2699H65.6709V38.5143ZM78.1039 25.6425V27.3316H85.1841V25.6425H78.1039ZM66.2995 25.6425H73.3796V27.3253H66.2741L66.2995 25.6425ZM151.458 9.3416H180.032V13.3041H151.458V9.3416ZM155.668 28.7223H144.873C144.873 28.7223 137.367 28.97 137.367 39.5176C137.367 50.3129 144.873 50.6558 144.873 50.6558H155.668V46.3504H147.534C146.435 46.2753 145.41 45.7695 144.683 44.9431C143.955 44.1166 143.583 43.0363 143.647 41.937H155.712V37.53H143.647C143.615 36.9717 143.695 36.4127 143.884 35.8862C144.072 35.3597 144.365 34.8766 144.744 34.4658C145.123 34.055 145.582 33.7249 146.092 33.4953C146.601 33.2656 147.152 33.1412 147.711 33.1293H155.668V28.7223ZM108.85 0.30531H97.7568C97.7568 0.30531 90.264 0.533916 90.264 11.1006C90.264 21.8959 97.7695 22.2388 97.7695 22.2388H108.863V17.9334H100.424C99.3252 17.8583 98.3007 17.3525 97.573 16.5261C96.8452 15.6996 96.4732 14.6193 96.5376 13.52H108.844V9.11299H96.5376C96.5051 8.55474 96.5854 7.99567 96.7738 7.46919C96.9622 6.9427 97.2549 6.45961 97.6343 6.04881C98.0136 5.63801 98.4719 5.30792 98.9818 5.07828C99.4916 4.84865 100.043 4.72418 100.602 4.71233H108.856L108.85 0.30531ZM4.99778 25.3885C5.09938 25.1091 5.20732 24.8423 5.32162 24.5756C6.5916 27.0395 8.38862 28.8493 10.446 29.5034C10.0857 29.5698 9.72954 29.6567 9.37919 29.7637C7.49386 28.7928 5.95959 27.2562 4.99143 25.3694L4.99778 25.3885ZM6.3757 31.256C6.55773 31.129 6.74188 31.0062 6.92814 30.8877C5.89915 30.1449 4.98916 29.2499 4.22944 28.2333C4.17864 28.5064 4.12785 28.7731 4.0961 29.0525C4.7649 29.8701 5.53035 30.6036 6.3757 31.237V31.256ZM23.7045 31.5227C23.7082 33.5265 23.4303 35.5209 22.879 37.4474C23.0103 37.7353 23.1352 38.0274 23.2537 38.3237C24.679 33.9017 24.679 29.1437 23.2537 24.7217C23.1352 25.0223 23.0103 25.3144 22.879 25.598C23.4285 27.5184 23.7064 29.5062 23.7045 31.5037V31.5227ZM20.8407 31.5227C20.838 32.302 20.7871 33.0803 20.6883 33.8532C20.8725 34.0818 21.0566 34.3231 21.2281 34.5708C21.5385 32.5506 21.5385 30.4948 21.2281 28.4746C21.0503 28.7223 20.8725 28.9636 20.6883 29.1922C20.7864 29.9588 20.8373 30.7308 20.8407 31.5037V31.5227ZM19.012 39.4541C17.4118 42.5911 14.9163 44.6549 12.1668 44.6549C9.41729 44.6549 6.92179 42.5847 5.32162 39.4541C5.23907 39.289 5.15652 39.1302 5.07398 38.9588C4.99143 38.7873 4.83904 38.4253 4.73109 38.1459C4.36198 37.2183 4.07513 36.2599 3.87385 35.282C3.8167 35.0026 3.77225 34.7232 3.72781 34.4374C3.68336 34.1517 3.67065 34.0437 3.64525 33.8405C3.444 32.2934 3.444 30.7267 3.64525 29.1795C3.64525 28.9763 3.69606 28.7794 3.72781 28.5826C3.75955 28.3857 3.8167 28.0174 3.87385 27.738C4.07513 26.7601 4.36198 25.8018 4.73109 24.8741C4.83904 24.601 4.95333 24.328 5.07398 24.0613C5.19462 23.7946 5.23907 23.7311 5.32162 23.566C6.92179 20.429 9.41729 18.3652 12.1668 18.3652C14.9163 18.3652 17.4118 20.4353 19.012 23.566C19.1263 23.2993 19.2342 23.0326 19.3358 22.7531C17.6277 19.6924 15.0496 17.7429 12.1668 17.7429C9.28395 17.7429 6.69955 19.6987 4.99778 22.7531C4.90888 22.914 4.81999 23.0791 4.73109 23.2485C4.59774 23.5088 4.47074 23.7819 4.35009 24.0613C3.94113 25.0061 3.61809 25.9859 3.38491 26.9887C3.31717 27.2723 3.2558 27.5581 3.20076 27.846C3.16266 28.0449 3.1288 28.2566 3.09916 28.481C2.78871 30.5012 2.78871 32.557 3.09916 34.5772C3.1288 34.7804 3.16266 34.992 3.20076 35.2122C3.2558 35.5043 3.31717 35.79 3.38491 36.0694C3.61809 37.0723 3.94113 38.052 4.35009 38.9969C4.47074 39.2763 4.59774 39.543 4.73109 39.8097C4.86443 40.0764 4.90253 40.1462 4.99778 40.305C6.7059 43.3658 9.28395 45.3153 12.1668 45.3153C15.0496 45.3153 17.634 43.3594 19.3358 40.305C19.2342 39.9684 19.1453 39.6763 19.012 39.435V39.4541ZM12.1604 47.4997C9.0871 47.4997 6.29316 45.8233 4.22309 43.0991C4.10033 42.9382 3.9818 42.7752 3.8675 42.6101C3.69817 42.3688 3.53519 42.1212 3.37856 41.8671C2.81179 40.9382 2.33345 39.9581 1.94984 38.9397C1.83977 38.6518 1.73605 38.3576 1.63869 38.057C1.57096 37.8496 1.50534 37.6379 1.44184 37.422C0.344729 33.5506 0.344729 29.4504 1.44184 25.579C1.50534 25.3631 1.57096 25.1514 1.63869 24.9439C1.73605 24.6434 1.83977 24.3492 1.94984 24.0613C2.33345 23.0429 2.81179 22.0628 3.37856 21.1338C3.53519 20.8798 3.69817 20.6322 3.8675 20.3909C3.9818 20.2258 4.10033 20.0628 4.22309 19.9019C6.29316 17.1777 9.0871 15.5013 12.1604 15.5013C15.2338 15.5013 18.0277 17.1777 20.0978 19.9019C20.1486 19.6289 20.1994 19.3622 20.2311 19.0828C18.0849 16.4665 15.2528 14.8789 12.1541 14.8789C9.05536 14.8789 6.22966 16.4728 4.07705 19.0828C3.95005 19.2352 3.8294 19.3875 3.70876 19.5463C3.58811 19.7051 3.35316 20.0226 3.18806 20.2766C2.57712 21.1926 2.05411 22.1642 1.626 23.1786C1.50323 23.4665 1.38682 23.7607 1.27675 24.0613C1.20055 24.273 1.12647 24.4846 1.0545 24.6963C-0.370788 29.1183 -0.370788 33.8763 1.0545 38.2983C1.12647 38.5142 1.20055 38.7259 1.27675 38.9334C1.38682 39.2339 1.50323 39.5282 1.626 39.816C2.05411 40.8304 2.57712 41.8021 3.18806 42.7181C3.35951 42.9657 3.53096 43.2134 3.70876 43.4483C3.88655 43.6833 3.95005 43.7595 4.07705 43.9119C6.22331 46.5282 9.05536 48.1157 12.1541 48.1157C15.2528 48.1157 18.0785 46.5218 20.2311 43.9119C20.193 43.6325 20.1422 43.3658 20.0978 43.0927C18.0341 45.8233 15.2401 47.4997 12.1604 47.4997ZM12.1604 2.84538C7.03609 2.84538 2.86422 9.01774 2.86422 16.5998C2.86499 17.6204 2.94353 18.6393 3.09916 19.6479C3.27696 19.4003 3.45476 19.1589 3.63891 18.9303C3.54009 18.1574 3.4892 17.3791 3.48651 16.5998C3.48651 9.4813 7.46153 3.4677 12.1604 3.4677C16.8594 3.4677 20.8344 9.4813 20.8344 16.5998C20.8317 17.3791 20.7808 18.1574 20.682 18.9303C20.682 19.1335 20.6312 19.3304 20.5994 19.5273C20.5677 19.7241 20.5105 20.0924 20.4534 20.3718C20.2521 21.3498 19.9653 22.3081 19.5962 23.2357C19.4882 23.5088 19.3739 23.7819 19.2533 24.0486C19.1326 24.3153 19.0882 24.3788 19.0056 24.5439C17.7356 27.0078 15.9386 28.8175 13.8813 29.4716C14.2415 29.538 14.5977 29.6249 14.948 29.732C16.8291 28.7633 18.3608 27.2315 19.3295 25.3504C19.4184 25.1895 19.5073 25.0244 19.5962 24.8551C19.7295 24.5947 19.8565 24.3216 19.9771 24.0422C20.3861 23.0974 20.7091 22.1176 20.9423 21.1148C21.0101 20.8312 21.0714 20.5454 21.1265 20.2575C21.1646 20.0586 21.1984 19.8469 21.2281 19.6225C21.3837 18.6139 21.4622 17.5949 21.463 16.5744C21.463 9.03678 17.2911 2.84538 12.1604 2.84538ZM12.1604 -0.0185547C5.45497 -0.0185547 0.000428894 7.43655 0.000428894 16.6062C-0.0069497 18.9154 0.353141 21.2111 1.0672 23.4072C1.18573 23.1066 1.31061 22.8145 1.44184 22.5309C0.890588 20.6044 0.612718 18.61 0.616368 16.6062C0.616368 7.78581 5.79152 0.603768 12.1541 0.603768C18.5167 0.603768 23.6918 7.77946 23.6918 16.6062C23.6955 18.61 23.4176 20.6044 22.8663 22.5309C22.8028 22.7468 22.7372 22.9585 22.6695 23.1659C22.5721 23.4665 22.4684 23.7607 22.3583 24.0486C21.9747 25.0669 21.4964 26.047 20.9296 26.976C20.773 27.23 20.61 27.4777 20.4407 27.719C20.3264 27.8841 20.2079 28.0471 20.0851 28.2079C19.3254 29.2245 18.4154 30.1195 17.3864 30.8623C17.5727 30.9766 17.7568 31.0994 17.9388 31.2306C18.7849 30.5933 19.5504 29.8555 20.2184 29.0335C20.3454 28.881 20.4661 28.7287 20.5867 28.5699C20.7074 28.4111 20.9423 28.0936 21.1074 27.8396C21.7184 26.9236 22.2414 25.952 22.6695 24.9376C22.7923 24.6497 22.9087 24.3555 23.0187 24.0549C23.0949 23.8433 23.169 23.6316 23.241 23.4199C23.955 21.2238 24.3151 18.9281 24.3078 16.6189C24.3268 7.46195 18.8723 0.000495031 12.1604 0.000495031V-0.0185547ZM21.2281 43.315C21.1984 43.1118 21.1646 42.9001 21.1265 42.68C21.0714 42.3879 21.0101 42.1021 20.9423 41.8227C20.7091 40.8199 20.3861 39.8401 19.9771 38.8953C19.8565 38.6158 19.7295 38.3491 19.5962 38.0824C19.4628 37.8157 19.4247 37.7459 19.3295 37.5871C18.3608 35.706 16.8291 34.1742 14.948 33.2055C14.7305 33.1052 14.508 33.0162 14.2813 32.9388C12.9092 32.4526 11.4117 32.4526 10.0396 32.9388C9.81291 33.0162 9.59037 33.1052 9.37285 33.2055C7.49178 34.1742 5.96006 35.706 4.99143 37.5871C5.09303 37.8665 5.20098 38.1332 5.31527 38.3999C6.58525 35.9361 8.38226 34.1263 10.4396 33.4722C11.5601 33.1083 12.7671 33.1083 13.8876 33.4722C15.945 34.1072 17.7547 35.9361 19.012 38.3999C19.0945 38.565 19.1771 38.7238 19.2596 38.8953C19.3422 39.0667 19.4946 39.4287 19.6025 39.7081C19.9716 40.6358 20.2585 41.5941 20.4597 42.572C20.5169 42.8514 20.5613 43.1308 20.6058 43.4166C20.6502 43.7023 20.6629 43.8103 20.6883 44.0135C20.7871 44.7864 20.838 45.5648 20.8407 46.344C20.8407 53.4625 16.8657 59.4761 12.1668 59.4761C7.46788 59.4761 3.49286 53.4625 3.49286 46.344C3.49555 45.5648 3.54644 44.7864 3.64525 44.0135C3.46111 43.7849 3.27697 43.5436 3.10552 43.2959C2.94989 44.3045 2.87134 45.3235 2.87057 46.344C2.87057 53.9325 7.04244 60.0985 12.1668 60.0985C17.2911 60.0985 21.463 53.9261 21.463 46.344C21.4603 45.3362 21.3818 44.33 21.2281 43.334V43.315ZM23.26 39.562C23.1881 39.3461 23.114 39.1345 23.0378 38.927C22.9277 38.6264 22.8113 38.3322 22.6885 38.0443C22.2604 37.03 21.7374 36.0583 21.1265 35.1423C20.955 34.8946 20.7836 34.647 20.6058 34.412C20.428 34.1771 20.3645 34.1009 20.2375 33.9485C19.5695 33.1264 18.804 32.3886 17.9579 31.7513L17.5832 31.4846C17.397 31.3576 17.2086 31.237 17.0181 31.1227C16.1718 30.6131 15.2534 30.2341 14.294 29.9987C12.9011 29.6544 11.4452 29.6544 10.0523 29.9987C9.09287 30.2341 8.1745 30.6131 7.32819 31.1227C7.13769 31.237 6.94931 31.3576 6.76305 31.4846L6.38841 31.7513C5.5423 32.3886 4.77682 33.1264 4.1088 33.9485C4.1469 34.2279 4.19769 34.4946 4.24214 34.7676C5.00187 33.7511 5.91185 32.8561 6.94084 32.1133L7.33453 31.8466C7.53349 31.7154 7.74516 31.5947 7.96952 31.4846C9.26013 30.7497 10.7197 30.3633 12.2049 30.3633C13.6901 30.3633 15.1497 30.7497 16.4403 31.4846C16.6477 31.5989 16.8594 31.7196 17.0753 31.8466L17.4689 32.1133C18.4979 32.8561 19.4079 33.7511 20.1676 34.7676C20.2904 34.9285 20.4089 35.0915 20.5232 35.2566C20.6926 35.4979 20.8555 35.7456 21.0122 35.9996C21.5789 36.9285 22.0573 37.9087 22.4409 38.927C22.551 39.2149 22.6547 39.5091 22.752 39.8097C22.8198 40.0171 22.8854 40.2288 22.9489 40.4447C23.5002 42.3712 23.778 44.3656 23.7744 46.3694C23.7744 55.1898 18.5992 62.3718 12.2366 62.3718C5.87406 62.3718 0.69891 55.1961 0.69891 46.3694C0.69526 44.3656 0.973139 42.3712 1.5244 40.4447C1.39317 40.1568 1.26829 39.8647 1.14976 39.5684C0.435692 41.7644 0.0755921 44.0602 0.0829707 46.3694C0.0829707 55.5327 5.53752 62.9941 12.243 62.9941C18.9485 62.9941 24.403 55.5391 24.403 46.3694C24.3845 44.0603 23.9986 41.7689 23.26 39.5811V39.562Z" fill="white"/>
</g>
<defs>
<clipPath id="clip0">
<rect width="180" height="63" fill="white"/>
</clipPath>
</defs>
</svg>
