<svg width="180" height="63" viewBox="0 0 180 63" fill="none" xmlns="http://www.w3.org/2000/svg">
<path d="M45.7069 0.305463H34.6137C34.6137 0.305463 27.1081 0.553119 27.1081 11.1007C27.1081 21.896 34.6137 22.2389 34.6137 22.2389H45.7069V17.9335H37.287C36.1884 17.8584 35.1639 17.3527 34.4362 16.5262C33.7084 15.6998 33.3364 14.6195 33.4009 13.5202H45.7069V9.11314H33.4009C33.3683 8.5549 33.4486 7.99583 33.637 7.46934C33.8255 6.94285 34.1181 6.45977 34.4975 6.04896C34.8768 5.63816 35.3351 5.30807 35.845 5.07843C36.3548 4.8488 36.9057 4.72434 37.4648 4.71248H45.7196L45.7069 0.305463ZM111.066 19.991V17.9399H117.772C119.442 17.9399 119.886 17.8319 120.312 17.1842C120.417 17.0261 120.472 16.8405 120.472 16.6508C120.472 16.461 120.417 16.2755 120.312 16.1174C119.988 15.4824 119.404 15.095 117.137 13.9774C112.755 11.7993 111.53 10.5038 111.111 7.6272C110.692 4.75058 111.835 2.08351 113.924 1.01668C115.143 0.381661 116.172 0.292769 121.27 0.292769H126.058V4.70612H120.445C118.858 4.70612 118.616 4.78234 118.261 5.01729C118.047 5.1634 117.886 5.3744 117.801 5.61911C117.717 5.86383 117.713 6.12927 117.791 6.37622C117.95 7.01124 118.705 7.55735 120.87 8.65593C124.979 10.7388 126.249 11.958 126.941 14.46C127.291 15.5351 127.291 16.6933 126.941 17.7684C126.338 20.0862 125.233 21.3372 123.226 21.9595C122.445 22.2008 121.791 22.2326 116.597 22.2326H111.015L111.066 19.991ZM128.636 19.991V17.9399H135.348C137.018 17.9399 137.463 17.8319 137.888 17.1842C137.993 17.0261 138.049 16.8405 138.049 16.6508C138.049 16.461 137.993 16.2755 137.888 16.1174C137.564 15.4824 136.98 15.095 134.713 13.9774C130.332 11.7993 129.106 10.5038 128.687 7.6272C128.268 4.75058 129.411 2.08351 131.5 1.01668C132.719 0.381661 133.748 0.292769 138.847 0.292769H143.635V4.70612H138.021C136.434 4.70612 136.193 4.78234 135.837 5.01729C135.623 5.1634 135.462 5.3744 135.378 5.61911C135.293 5.86383 135.289 6.12927 135.367 6.37622C135.526 7.01124 136.282 7.55735 138.447 8.65593C142.555 10.7388 143.825 11.958 144.517 14.46C144.867 15.5351 144.867 16.6933 144.517 17.7684C143.914 20.0862 142.809 21.3372 140.803 21.9595C140.022 22.2008 139.368 22.2326 134.173 22.2326H128.592L128.636 19.991ZM174.806 59.997L176.013 57.1839L177.194 59.997H174.806ZM177.759 61.375C177.868 61.5983 177.937 61.839 177.962 62.0862C177.961 62.1418 177.947 62.1964 177.922 62.2458C177.897 62.2953 177.861 62.3384 177.816 62.372C177.645 62.472 177.449 62.5205 177.251 62.5117V62.7022H179.994V62.5371C179.763 62.5303 179.539 62.4477 179.359 62.3021C179.123 62.0405 178.941 61.7338 178.826 61.4004L176.406 55.6154H176.229L173.784 61.3306C173.655 61.6957 173.459 62.0337 173.206 62.3275C173.038 62.4411 172.843 62.5089 172.641 62.5244V62.7149H174.832V62.5371C174.61 62.5406 174.391 62.4858 174.197 62.3783C174.151 62.3472 174.113 62.3056 174.087 62.257C174.06 62.2084 174.046 62.1542 174.044 62.0989C174.063 61.8778 174.123 61.6623 174.222 61.4639L174.692 60.3653H177.384L177.759 61.375ZM63.4612 11.2087V0.305463H66.8139C69.8809 0.356264 70.2365 0.388005 71.0112 0.692813C72.9814 1.56948 74.5625 3.13713 75.4561 5.09983L75.9895 6.17301L76.4721 5.17605C77.3554 3.18814 78.9368 1.59306 80.917 0.692813C81.6917 0.388005 82.0536 0.349914 85.0444 0.305463H88.3591V22.2135H81.8314V14.8156C81.8314 9.4497 81.8314 7.57641 81.8314 7.27795C81.5583 7.27795 80.3328 8.40827 79.9264 9.25284C79.1771 10.7261 79.139 11.2912 79.1327 16.9556V22.2262H72.8018V16.9429C72.8018 11.3421 72.7384 10.5419 72.0526 9.19569C71.5441 8.43267 70.8824 7.78388 70.1095 7.29064V22.2326H63.4866L63.4612 11.2087ZM169.199 62.5371C169.037 62.537 168.878 62.4955 168.736 62.4164C168.641 62.3689 168.565 62.2905 168.52 62.1942C168.461 61.9663 168.437 61.7307 168.45 61.4956V57.0061C168.421 56.737 168.465 56.465 168.577 56.2187C168.655 56.1293 168.754 56.0601 168.864 56.017C168.975 55.9739 169.094 55.9581 169.212 55.971H169.466V55.7805H166.463V55.971H166.71C166.875 55.9706 167.036 56.0121 167.18 56.0917C167.273 56.1403 167.347 56.2186 167.39 56.3139C167.449 56.5418 167.472 56.7774 167.46 57.0124V61.502C167.486 61.771 167.443 62.0424 167.333 62.2894C167.254 62.3788 167.156 62.448 167.045 62.4911C166.935 62.5342 166.815 62.55 166.698 62.5371H166.463V62.7276H169.441V62.5371H169.199ZM162.018 55.609C162.003 55.7251 161.957 55.835 161.884 55.9266C161.826 55.9808 161.748 56.0103 161.668 56.0091C161.527 55.9912 161.389 55.9482 161.262 55.8821C160.893 55.7111 160.493 55.6181 160.087 55.609C159.548 55.5893 159.023 55.7833 158.627 56.1488C158.447 56.3079 158.302 56.5033 158.202 56.7221C158.103 56.941 158.05 57.1784 158.049 57.4188C158.047 57.6937 158.115 57.9647 158.246 58.2063C158.392 58.4537 158.587 58.6695 158.817 58.8413C159.221 59.1353 159.646 59.4006 160.087 59.635C160.678 59.9716 161.046 60.1875 161.179 60.2701C161.36 60.3985 161.51 60.5655 161.618 60.759C161.707 60.918 161.756 61.0971 161.757 61.2797C161.757 61.4318 161.724 61.582 161.661 61.7201C161.597 61.8582 161.504 61.9809 161.389 62.0799C161.105 62.3171 160.742 62.4375 160.373 62.4164C160.019 62.4189 159.67 62.3338 159.357 62.1688C159.072 62.0248 158.833 61.8051 158.665 61.5338C158.479 61.1834 158.356 60.8028 158.303 60.4098H158.112V62.7911H158.303C158.312 62.6769 158.351 62.5672 158.417 62.4736C158.444 62.4473 158.476 62.427 158.511 62.4139C158.546 62.4007 158.583 62.3951 158.62 62.3974C158.837 62.4272 159.05 62.4804 159.255 62.5561C159.464 62.6288 159.676 62.6903 159.89 62.7403C160.079 62.7723 160.27 62.7872 160.462 62.7847C161.042 62.8083 161.607 62.603 162.037 62.2132C162.235 62.0461 162.394 61.8381 162.503 61.6035C162.613 61.3688 162.67 61.1132 162.672 60.8543C162.673 60.5783 162.607 60.306 162.481 60.0605C162.347 59.8118 162.161 59.5951 161.935 59.4255C161.511 59.1245 161.065 58.8549 160.602 58.619C160.046 58.3623 159.535 58.0171 159.09 57.5967C158.948 57.4378 158.869 57.2321 158.868 57.0188C158.87 56.8781 158.902 56.7395 158.962 56.6123C159.023 56.4852 159.11 56.3726 159.217 56.2822C159.458 56.063 159.774 55.9448 160.1 55.952C160.42 55.9543 160.735 56.0373 161.014 56.1933C161.294 56.3402 161.528 56.5595 161.694 56.8283C161.874 57.1698 161.986 57.5428 162.024 57.9269H162.215V55.5265L162.018 55.609ZM153.09 55.609C153.074 55.7258 153.025 55.8357 152.95 55.9266C152.891 55.9808 152.814 56.0103 152.734 56.0091C152.592 55.9911 152.455 55.9481 152.328 55.8821C151.959 55.7111 151.559 55.6181 151.153 55.609C150.614 55.59 150.089 55.7839 149.693 56.1488C149.514 56.3087 149.37 56.5044 149.272 56.7232C149.174 56.942 149.122 57.179 149.121 57.4188C149.117 57.6932 149.183 57.964 149.312 58.2063C149.458 58.4535 149.653 58.6693 149.883 58.8413C150.287 59.1353 150.712 59.4005 151.153 59.635C151.528 59.8283 151.892 60.0402 152.245 60.2701C152.424 60.3999 152.574 60.5666 152.683 60.759C152.773 60.9181 152.821 61.0972 152.823 61.2797C152.823 61.4323 152.789 61.583 152.724 61.7212C152.659 61.8594 152.565 61.9818 152.448 62.0799C152.167 62.3162 151.806 62.4365 151.439 62.4164C151.085 62.4194 150.736 62.3343 150.423 62.1688C150.138 62.0254 149.898 61.8055 149.731 61.5338C149.545 61.1834 149.422 60.8028 149.369 60.4098H149.178V62.7911H149.369C149.376 62.6775 149.413 62.5678 149.477 62.4736C149.504 62.4477 149.535 62.4275 149.57 62.4144C149.605 62.4013 149.643 62.3955 149.68 62.3974C149.897 62.427 150.11 62.4802 150.315 62.5561C150.523 62.6289 150.735 62.6903 150.95 62.7403C151.137 62.7719 151.326 62.7868 151.515 62.7847C152.097 62.8093 152.665 62.604 153.096 62.2132C153.294 62.0461 153.453 61.8381 153.563 61.6035C153.672 61.3688 153.73 61.1132 153.731 60.8543C153.73 60.5778 153.662 60.3056 153.534 60.0605C153.401 59.8117 153.214 59.595 152.988 59.4255C152.563 59.1252 152.118 58.8556 151.655 58.619C151.099 58.3614 150.589 58.0162 150.143 57.5967C150.002 57.4369 149.924 57.2318 149.921 57.0188C149.923 56.8782 149.956 56.7397 150.016 56.6126C150.076 56.4856 150.163 56.3729 150.27 56.2822C150.511 56.063 150.827 55.9448 151.153 55.952C151.473 55.9543 151.788 56.0373 152.067 56.1933C152.348 56.3386 152.583 56.5583 152.747 56.8283C152.928 57.1692 153.04 57.5425 153.077 57.9269H153.268V55.5265L153.09 55.609ZM143.178 55.9583C143.287 55.9497 143.397 55.9651 143.501 56.0035C143.604 56.0419 143.697 56.1023 143.774 56.1806C143.902 56.4313 143.953 56.714 143.921 56.9934V59.8065C143.95 60.337 143.884 60.8684 143.724 61.375C143.573 61.7059 143.313 61.9749 142.987 62.137C142.613 62.3398 142.193 62.4426 141.768 62.4355C141.456 62.4452 141.147 62.3799 140.866 62.245C140.642 62.1342 140.45 61.9681 140.307 61.7624C140.159 61.5124 140.068 61.2326 140.041 60.9432C139.994 60.6363 139.968 60.3265 139.965 60.0161V56.987C139.94 56.7243 139.984 56.4595 140.092 56.2187C140.164 56.1222 140.262 56.0466 140.373 55.9998C140.485 55.953 140.607 55.9365 140.727 55.952H140.993V55.7614H137.99V55.952H138.25C138.354 55.9412 138.459 55.9533 138.558 55.9873C138.656 56.0213 138.746 56.0764 138.822 56.1488C138.97 56.4016 139.032 56.6957 138.999 56.987V59.7049C138.969 60.2814 139.025 60.8592 139.164 61.4194C139.322 61.8544 139.616 62.2266 140.003 62.4799C140.528 62.7761 141.128 62.9129 141.73 62.8736C142.309 62.9041 142.884 62.7604 143.381 62.4609C143.752 62.2273 144.037 61.8797 144.194 61.4703C144.353 60.9437 144.424 60.3944 144.403 59.8446V57.0251C144.379 56.7745 144.416 56.5218 144.511 56.2885C144.576 56.1794 144.67 56.09 144.781 56.0296C144.893 55.9693 145.019 55.9402 145.146 55.9456H145.406V55.7551H142.949V55.9456L143.178 55.9583ZM130.351 56.2568C130.616 56.198 130.886 56.164 131.157 56.1552C131.356 56.1465 131.554 56.1787 131.74 56.2497C131.925 56.3207 132.095 56.429 132.237 56.5679C132.373 56.7068 132.479 56.8719 132.549 57.0531C132.618 57.2343 132.651 57.428 132.643 57.6221C132.653 57.8298 132.616 58.037 132.535 58.2284C132.453 58.4197 132.33 58.5902 132.173 58.727C131.741 59.0441 131.21 59.1972 130.675 59.1588H130.389L130.351 56.2568ZM135.285 62.5307C134.96 62.5074 134.645 62.4096 134.364 62.245C134.029 61.9922 133.741 61.6827 133.513 61.3306L132.097 59.362C132.579 59.2764 133.023 59.0434 133.367 58.6952C133.642 58.3909 133.792 57.994 133.786 57.584C133.795 57.2053 133.664 56.8367 133.418 56.5489C133.185 56.269 132.876 56.0618 132.529 55.952C131.995 55.8256 131.446 55.7722 130.897 55.7932H128.357V55.9837H128.617C128.727 55.9751 128.837 55.9905 128.94 56.0289C129.043 56.0673 129.137 56.1277 129.214 56.206C129.34 56.4573 129.388 56.74 129.354 57.0188V61.5084C129.378 61.7652 129.341 62.0243 129.246 62.264C129.174 62.363 129.078 62.4415 128.967 62.4917C128.855 62.5418 128.733 62.5618 128.611 62.5498H128.363V62.7403H131.341V62.5371H131.068C130.961 62.5456 130.852 62.5301 130.751 62.4916C130.65 62.4532 130.559 62.3928 130.484 62.3148C130.358 62.0639 130.309 61.7808 130.344 61.502V59.4827H130.503H130.649H131.075L133.424 62.7339H135.278L135.285 62.5307ZM75.7926 62.7212L78.4723 56.8727V61.521C78.4979 61.7765 78.4586 62.0342 78.358 62.2704C78.2846 62.3664 78.1874 62.4415 78.076 62.4883C77.9646 62.5351 77.8429 62.5519 77.723 62.5371H77.4754V62.7276H80.4281V62.5371H80.1868C80.0776 62.5457 79.9679 62.5309 79.865 62.4937C79.762 62.4564 79.6682 62.3976 79.5899 62.3212C79.4629 62.0749 79.4121 61.7963 79.4438 61.521V56.9807C79.4188 56.7253 79.4581 56.4677 79.5581 56.2314C79.6327 56.1368 79.7301 56.0627 79.8412 56.016C79.9522 55.9694 80.0734 55.9517 80.1931 55.9647H80.4344V55.7742H78.466L75.9831 61.2163L73.4432 55.7742H71.4747V55.9647C71.6914 55.9494 71.9086 55.9841 72.1097 56.0663C72.2211 56.1183 72.3125 56.2052 72.3701 56.3139C72.4519 56.5262 72.4865 56.7537 72.4717 56.9807V61.521C72.4951 61.7764 72.4559 62.0336 72.3574 62.2704C72.2832 62.3654 72.1858 62.4399 72.0747 62.4866C71.9635 62.5333 71.8422 62.5507 71.7224 62.5371H71.4747V62.7276H73.894V62.5371H73.6464C73.5362 62.5466 73.4253 62.5323 73.3212 62.495C73.2171 62.4577 73.1222 62.3985 73.0432 62.3212C72.923 62.0727 72.8768 61.795 72.9098 61.521V56.8727L75.5958 62.7212H75.7926ZM62.2293 56.2568C62.4944 56.1979 62.7644 56.1639 63.0357 56.1552C63.2344 56.1462 63.4327 56.1781 63.6184 56.2492C63.8042 56.3202 63.9733 56.4287 64.1152 56.5679C64.2514 56.7066 64.3577 56.8716 64.4275 57.0529C64.4974 57.2342 64.5294 57.4279 64.5216 57.6221C64.5261 57.8318 64.4827 58.0397 64.3947 58.2301C64.3066 58.4205 64.1763 58.5882 64.0136 58.7206C63.5814 59.0383 63.05 59.1914 62.515 59.1525H62.2293V56.2568ZM67.1632 62.5307C66.8384 62.5072 66.5234 62.4094 66.2424 62.245C65.9105 61.9909 65.6248 61.6816 65.3979 61.3306L63.9755 59.362C64.4577 59.2768 64.9015 59.0438 65.2455 58.6952C65.5209 58.3913 65.6707 57.9941 65.6646 57.584C65.6736 57.2053 65.5424 56.8367 65.2963 56.5489C65.0631 56.269 64.7546 56.0618 64.4073 55.952C63.8709 55.8251 63.3198 55.7717 62.769 55.7932H60.2291V55.9837H60.4894C60.5991 55.9751 60.7093 55.9905 60.8124 56.0289C60.9155 56.0673 61.009 56.1277 61.0863 56.206C61.2114 56.4574 61.26 56.74 61.226 57.0188V61.5084C61.2508 61.7653 61.2138 62.0243 61.1181 62.264C61.0465 62.363 60.9502 62.4415 60.8387 62.4917C60.7273 62.5418 60.6047 62.5618 60.4831 62.5498H60.2227V62.7403H63.2008V62.5371H62.9595C62.8518 62.5456 62.7435 62.5301 62.6425 62.4916C62.5414 62.4532 62.4502 62.3928 62.3754 62.3148C62.2474 62.0643 62.1965 61.7814 62.2293 61.502V59.4827H62.3881H62.5341H62.9595L65.309 62.7339H67.1632V62.5307ZM53.9173 56.1488C54.1611 56.136 54.4054 56.1617 54.6412 56.225C54.7986 56.2875 54.9335 56.396 55.0285 56.5362C55.15 56.7731 55.2315 57.0284 55.2698 57.2918H55.4667L55.3905 55.7678H50.0312V55.9583H50.2788C50.3931 55.9445 50.5089 55.9556 50.6185 55.9906C50.7281 56.0257 50.8288 56.084 50.9138 56.1615C51.0323 56.415 51.0785 56.6963 51.0472 56.9743V61.4893C51.0582 61.7152 51.0389 61.9416 50.99 62.1624C50.9514 62.271 50.8715 62.36 50.7678 62.4101C50.6254 62.4866 50.4659 62.526 50.3042 62.5244H50.0566V62.7149H55.4095L56.0128 60.9686H55.8096C55.6453 61.3172 55.4314 61.6402 55.1746 61.9275C55.0319 62.0755 54.8554 62.1866 54.6602 62.2513C54.3797 62.3185 54.0912 62.3463 53.803 62.3339H52.6219C52.4902 62.3438 52.3579 62.3243 52.2346 62.2767C52.1689 62.2425 52.1172 62.1863 52.0886 62.118C52.0512 61.932 52.0384 61.7421 52.0504 61.5528V59.2604H53.5808C53.7977 59.2503 54.0143 59.2872 54.2158 59.3684C54.3457 59.4249 54.453 59.5232 54.5206 59.6478C54.5942 59.8529 54.6433 60.0661 54.6666 60.2828H54.8571V57.8634H54.6666C54.6802 58.1672 54.5729 58.464 54.3682 58.6889C54.1323 58.839 53.8523 58.904 53.5744 58.873H52.0441V56.1234L53.9173 56.1488ZM40.3159 57.0061C40.3036 56.7777 40.325 56.5488 40.3794 56.3266C40.4186 56.2184 40.4983 56.1296 40.6016 56.079C40.7443 56.0031 40.9036 55.9639 41.0652 55.9647H41.3191V55.7742H38.3411V55.9647H38.5887C38.753 55.9642 38.9148 56.0057 39.0586 56.0853C39.1519 56.1332 39.2258 56.2117 39.2681 56.3076C39.3268 56.5355 39.3503 56.7711 39.338 57.0061V61.4956C39.3665 61.7668 39.3227 62.0407 39.211 62.2894C39.1326 62.3784 39.034 62.4473 38.9236 62.4904C38.8131 62.5335 38.6939 62.5495 38.576 62.5371H38.3284V62.7276H41.3064V62.5371H41.0525C40.8901 62.5376 40.7304 62.496 40.5889 62.4164C40.493 62.3702 40.4165 62.2914 40.373 62.1942C40.3136 61.9664 40.2901 61.7307 40.3032 61.4956V59.362H43.5353V61.4766C43.5657 61.7478 43.5218 62.0222 43.4083 62.2704C43.3302 62.3597 43.2317 62.4289 43.1211 62.4721C43.0106 62.5152 42.8912 62.531 42.7733 62.518H42.5256V62.7085H45.4974V62.5371H45.2497C45.0833 62.5378 44.9195 62.4963 44.7735 62.4164C44.6808 62.3677 44.6071 62.2895 44.5639 62.1942C44.5049 61.9663 44.4814 61.7307 44.4941 61.4956V57.0061C44.4825 56.7781 44.5017 56.5495 44.5512 56.3266C44.5899 56.2181 44.6697 56.1291 44.7735 56.079C44.9185 56.0031 45.0798 55.9639 45.2434 55.9647H45.491V55.7742H42.5193V55.9647H42.7669C42.9294 55.9633 43.0893 56.0049 43.2305 56.0853C43.325 56.1304 43.4013 56.2066 43.4464 56.3012C43.503 56.5316 43.5244 56.7693 43.5099 57.0061V58.9937H40.2778L40.3159 57.0061ZM28.0987 55.7742L28.0162 57.4062H28.213C28.2207 57.1413 28.2973 56.883 28.4352 56.6568C28.543 56.4857 28.7035 56.3542 28.8924 56.2822C29.1184 56.2244 29.3517 56.2008 29.5846 56.2123H30.4228V61.521C30.447 61.7764 30.4078 62.0338 30.3085 62.2704C30.2343 62.3654 30.1369 62.4399 30.0258 62.4866C29.9146 62.5333 29.7933 62.5507 29.6735 62.5371H29.4258V62.7276H32.3785V62.5371H32.1372C32.0282 62.5449 31.9187 62.5297 31.8159 62.4925C31.713 62.4553 31.6192 62.3969 31.5403 62.3212C31.4174 62.0736 31.3688 61.7957 31.4006 61.521V56.1869H32.3849C32.6236 56.1759 32.8613 56.2239 33.077 56.3266C33.2599 56.4262 33.4083 56.579 33.5025 56.7648C33.5874 56.9668 33.6388 57.1813 33.6549 57.3998H33.8517L33.7755 55.7678L28.0987 55.7742ZM164.5 37.5301V41.3402L172.755 50.6813H179.981L172.241 41.9054C173.352 41.7149 177.435 40.6354 177.435 35.333C177.435 28.7352 171.542 28.7225 171.542 28.7225H157.497V50.6559H163.789V33.1295H169.003C169.586 33.1295 170.146 33.3613 170.558 33.7739C170.971 34.1866 171.203 34.7462 171.203 35.3298C171.203 35.9134 170.971 36.473 170.558 36.8857C170.146 37.2983 169.586 37.5301 169.003 37.5301H164.5ZM113.314 28.7288V62.7403H119.613V50.675H126.655C126.655 50.675 136.021 50.6178 136.021 39.6892C136.021 28.7605 126.668 28.7479 126.668 28.7479L113.314 28.7288ZM119.632 33.1358H123.607C123.607 33.1358 129.798 33.1358 129.798 39.5812C129.798 46.3505 123.607 46.3505 123.607 46.3505H119.632V33.1358ZM51.9679 28.7288V50.6623H64.0771V46.3569H58.2416V28.7288H51.9679ZM48.3167 0.305463V22.2389H61.0165V17.9335H54.5904V0.305463H48.3167ZM89.0385 28.7415V62.753H95.3439V50.6877H102.392C102.392 50.6877 111.758 50.6305 111.758 39.7019C111.758 28.7733 102.411 28.7605 102.411 28.7605L89.0385 28.7415ZM95.3566 33.1485H99.3316C99.3316 33.1485 105.523 33.1485 105.523 39.5939C105.523 46.3632 99.3316 46.3632 99.3316 46.3632H95.3439L95.3566 33.1485ZM27.9971 28.7415V50.675H34.2898V41.3085L42.5447 50.6496H50.4122L39.8777 38.7875L50.4058 28.7225H42.5447L34.2898 36.6094V28.7225L27.9971 28.7415ZM65.7344 34.3614C66.5559 34.7563 67.4048 35.0916 68.2744 35.3647C69.0015 34.0924 69.8522 32.8949 70.8143 31.7896C70.2458 31.4915 69.7203 31.1177 69.2523 30.6783C67.8245 31.6281 66.6216 32.8787 65.7281 34.3424L65.7344 34.3614ZM69.792 30.3544C70.2266 30.7451 70.7114 31.0761 71.2334 31.3387C72.0204 30.4666 72.8625 29.6458 73.7543 28.8812C72.3538 29.1198 71.0088 29.6126 69.7857 30.3354L69.792 30.3544ZM77.6786 28.8812C78.5772 29.638 79.4257 30.4526 80.2185 31.3197C80.7455 31.0562 81.2346 30.723 81.6726 30.329C80.4414 29.6053 79.0875 29.1145 77.6786 28.8812ZM82.1679 30.6529C81.6964 31.0955 81.1666 31.4715 80.5931 31.7705C81.5514 32.8789 82.4019 34.076 83.1331 35.3457C84.0038 35.0704 84.8528 34.7308 85.673 34.3296C84.7834 32.8653 83.5851 31.6128 82.1616 30.6592L82.1679 30.6529ZM85.6985 46.5283C84.8782 46.1289 84.0291 45.7914 83.1585 45.5186C82.4272 46.7863 81.5767 47.9813 80.6186 49.0874C81.1866 49.3838 81.712 49.7554 82.1806 50.1924C83.6068 49.2341 84.8055 47.9747 85.6921 46.5029L85.6985 46.5283ZM81.6282 50.4718C81.1934 50.083 80.7086 49.7542 80.1868 49.4938C79.4139 50.3504 78.5867 51.1565 77.7103 51.9069C79.0923 51.6695 80.4198 51.1833 81.6282 50.4718ZM73.7035 51.9006C72.8287 51.1507 72.0016 50.3469 71.2271 49.4938C70.7128 49.7546 70.2347 50.0812 69.8047 50.4654C71.0034 51.1845 72.322 51.6814 73.6972 51.9323L73.7035 51.9006ZM69.2586 50.1416C69.7213 49.7077 70.2403 49.3381 70.8016 49.043C69.8397 47.9376 68.9889 46.7401 68.2617 45.4678C67.3914 45.7389 66.5424 46.0743 65.7217 46.4712C66.6188 47.9529 67.8333 49.2173 69.2777 50.1733L69.2586 50.1416ZM74.5798 51.8751C74.1607 51.1385 73.6019 50.0336 73.0432 48.808C72.6097 48.9204 72.1853 49.0647 71.7732 49.2398C72.6472 50.1981 73.5917 51.0896 74.5989 51.9069L74.5798 51.8751ZM71.3541 48.7763C71.826 48.5652 72.3145 48.3932 72.8145 48.2619C72.3002 47.0935 71.7922 45.8488 71.3922 44.7185C70.5354 44.8638 69.6875 45.0567 68.8522 45.2964C69.5764 46.5461 70.4207 47.7222 71.3731 48.808L71.3541 48.7763ZM82.5489 45.2964C81.7139 45.0573 80.8659 44.8665 80.009 44.7249C79.6153 45.8552 79.1073 47.0998 78.5929 48.2683C79.0927 48.4007 79.581 48.5727 80.0534 48.7826C80.9999 47.714 81.8419 46.5572 82.568 45.3281L82.5489 45.2964ZM79.6089 49.2335C79.1964 49.0595 78.772 48.9151 78.339 48.8017C77.7802 50.0273 77.2277 51.1322 76.815 51.8751C77.8158 51.0758 78.756 50.2034 79.628 49.2652L79.6089 49.2335ZM79.3803 44.6296C78.2545 44.4728 77.1198 44.3879 75.9831 44.3756V47.9317C76.6509 47.9473 77.316 48.0217 77.9707 48.154C78.5041 47.0109 79.0057 45.7853 79.3994 44.6614L79.3803 44.6296ZM77.723 48.6747C77.1488 48.5684 76.567 48.509 75.9831 48.4969V51.7608H76.1546C76.5864 51.1068 77.1579 49.9828 77.7421 48.7064L77.723 48.6747ZM75.3926 44.382C74.2517 44.3931 73.1127 44.478 71.9827 44.636C72.3764 45.7599 72.8844 46.9855 73.3924 48.1286C74.0513 47.9958 74.7206 47.9214 75.3926 47.9063V44.382ZM75.3926 48.4969C74.8044 48.5111 74.2183 48.5727 73.64 48.681C74.2306 49.951 74.8021 51.0877 75.2148 51.7735H75.3926V48.5096V48.4969ZM74.5798 28.9129C73.5778 29.7224 72.6376 30.6054 71.7668 31.5546C72.1794 31.7283 72.6038 31.8727 73.0368 31.9864C73.64 30.7863 74.1925 29.6813 74.5989 28.9384L74.5798 28.9129ZM71.3731 32.0563C70.4158 33.1313 69.5651 34.2967 68.8332 35.5362C69.6685 35.774 70.5165 35.9648 71.3731 36.1077C71.7732 34.9774 72.2748 33.7327 72.7955 32.5643C72.3089 32.432 71.8334 32.2622 71.3731 32.0563ZM82.568 35.5362C81.8364 34.2964 80.9858 33.1309 80.028 32.0563C79.5557 32.2665 79.0673 32.4385 78.5675 32.5706C79.0819 33.7327 79.5899 34.9774 79.9836 36.1077C80.8555 35.9624 81.7183 35.7673 82.568 35.5235V35.5362ZM79.628 31.5991C78.7586 30.6485 77.8183 29.7654 76.815 28.9574C77.2214 29.694 77.7738 30.799 78.339 32.0245C78.7788 31.9105 79.2097 31.764 79.628 31.5864V31.5991ZM79.3994 36.2029C78.9993 35.079 78.4977 33.8534 77.9897 32.7104C77.3372 32.8431 76.6742 32.9175 76.0085 32.9326V36.4569C77.1435 36.4393 78.2762 36.3481 79.3994 36.1839V36.2029ZM77.7421 32.1579C77.2735 31.1015 76.7522 30.0694 76.18 29.0654H76.0085V32.3293C76.5904 32.3146 77.1701 32.2531 77.7421 32.1452V32.1579ZM75.4116 36.4506V32.9263C74.7395 32.9093 74.0701 32.8328 73.4114 32.6977C72.8971 33.8407 72.3955 35.0726 71.9954 36.1966C73.1279 36.3493 74.2689 36.4299 75.4116 36.4379V36.4506ZM75.4116 32.3357V29.0717H75.2338C74.8275 29.7575 74.2496 30.8815 73.6591 32.1642C74.238 32.2657 74.824 32.3209 75.4116 32.3293V32.3357ZM64.0263 40.4195C64.0239 42.3672 64.5108 44.2844 65.4423 45.9949C66.2646 45.5999 67.1133 45.2625 67.9823 44.9852C67.6928 44.438 67.4362 43.8739 67.214 43.2961C67.2053 43.2585 67.2053 43.2194 67.214 43.1818C67.2095 43.1102 67.2315 43.0394 67.2758 42.983C67.3202 42.9266 67.3837 42.8884 67.4544 42.8759C67.525 42.8633 67.5978 42.8772 67.6589 42.9149C67.7199 42.9526 67.765 43.0114 67.7855 43.0802C68.0192 43.6737 68.2885 44.2526 68.5919 44.8138C69.4679 44.5509 70.3584 44.3389 71.2588 44.1787C71.1509 43.8549 71.0556 43.5437 70.9731 43.2453C70.9681 43.2159 70.9681 43.1858 70.9731 43.1564C70.9655 43.0814 70.9872 43.0063 71.0336 42.9469C71.0801 42.8875 71.1477 42.8484 71.2224 42.8377C71.297 42.827 71.3729 42.8457 71.4342 42.8897C71.4954 42.9337 71.5372 42.9997 71.5509 43.0738C71.6335 43.3913 71.7414 43.7088 71.8557 44.0835C73.0503 43.9095 74.2553 43.8162 75.4625 43.8041V43.1691C75.4729 43.0982 75.5084 43.0334 75.5626 42.9866C75.6169 42.9398 75.6861 42.914 75.7577 42.914C75.8294 42.914 75.8986 42.9398 75.9528 42.9866C76.007 43.0334 76.0426 43.0982 76.053 43.1691V43.8041C77.2559 43.8175 78.4565 43.9108 79.647 44.0835C79.7613 43.7342 79.8693 43.3977 79.9582 43.0865C79.9814 43.0226 80.0257 42.9686 80.0838 42.9333C80.1419 42.898 80.2103 42.8837 80.2777 42.8926C80.3451 42.9014 80.4074 42.9331 80.4544 42.9822C80.5014 43.0313 80.5301 43.095 80.536 43.1627C80.5401 43.1922 80.5401 43.2221 80.536 43.2516C80.4535 43.5437 80.3582 43.8866 80.2566 44.1787C81.1567 44.3404 82.0471 44.5525 82.9236 44.8138C83.2256 44.255 83.4928 43.6782 83.7237 43.0865C83.7441 43.0177 83.7892 42.9589 83.8502 42.9212C83.9113 42.8835 83.9841 42.8696 84.0547 42.8822C84.1254 42.8948 84.1889 42.9329 84.2333 42.9893C84.2776 43.0457 84.2996 43.1165 84.2951 43.1881C84.3028 43.2258 84.3028 43.2647 84.2951 43.3024C84.0658 43.8793 83.805 44.4432 83.5141 44.9916C84.3834 45.2707 85.2321 45.6102 86.054 46.0076C86.9799 44.2962 87.4648 42.3811 87.4648 40.4353C87.4648 38.4895 86.9799 36.5744 86.054 34.8631C85.2318 35.2615 84.3831 35.6031 83.5141 35.8854C83.8051 36.4338 84.0659 36.9977 84.2951 37.5746C84.3018 37.6124 84.3018 37.6511 84.2951 37.6889C84.2996 37.7605 84.2776 37.8313 84.2333 37.8877C84.1889 37.9441 84.1254 37.9822 84.0547 37.9948C83.9841 38.0074 83.9113 37.9935 83.8502 37.9558C83.7892 37.9181 83.7441 37.8593 83.7237 37.7905C83.4915 37.1994 83.2243 36.6226 82.9236 36.0632C82.0455 36.3265 81.1529 36.5385 80.2503 36.6983C80.3582 37.0221 80.4535 37.3333 80.536 37.6317C80.5401 37.6612 80.5401 37.6912 80.536 37.7206C80.5301 37.7884 80.5014 37.8521 80.4544 37.9012C80.4074 37.9503 80.3451 37.9819 80.2777 37.9908C80.2103 37.9997 80.1419 37.9853 80.0838 37.9501C80.0257 37.9148 79.9814 37.8607 79.9582 37.7968C79.8693 37.4793 79.7677 37.1618 79.647 36.7935C78.4568 36.9683 77.256 37.0617 76.053 37.0729V37.7079C76.0513 37.7843 76.0198 37.857 75.9652 37.9104C75.9106 37.9638 75.8373 37.9937 75.7609 37.9937C75.6839 37.9938 75.6098 37.9641 75.5542 37.9108C75.4986 37.8576 75.4657 37.7849 75.4625 37.7079V37.0729C74.2574 37.0603 73.0546 36.9669 71.8621 36.7935C71.7478 37.1428 71.6398 37.4857 71.5573 37.8032C71.5436 37.8773 71.5017 37.9433 71.4405 37.9874C71.3793 38.0314 71.3034 38.05 71.2287 38.0393C71.1541 38.0286 71.0864 37.9895 71.04 37.9301C70.9935 37.8707 70.9718 37.7957 70.9794 37.7206C70.9747 37.6912 70.9747 37.6612 70.9794 37.6317C71.062 37.3396 71.1572 36.9967 71.2652 36.6983C70.3646 36.5387 69.4741 36.3266 68.5982 36.0632C68.2943 36.6241 68.0249 37.203 67.7918 37.7968C67.765 37.8583 67.7183 37.909 67.6592 37.9406C67.6001 37.9723 67.532 37.9831 67.466 37.9714C67.4 37.9597 67.3398 37.926 67.2953 37.8759C67.2507 37.8258 67.2243 37.7622 67.2203 37.6952C67.2123 37.6554 67.2123 37.6144 67.2203 37.5746C67.4391 36.9911 67.6914 36.4208 67.9759 35.8664C67.1067 35.5872 66.258 35.2477 65.436 34.8504C64.5097 36.5581 64.0252 38.4703 64.0263 40.4131V40.4195ZM77.0309 38.5144H79.6343C79.7873 38.5101 79.9396 38.5368 80.082 38.5928C80.2245 38.6488 80.3541 38.733 80.4632 38.8403C80.5723 38.9476 80.6586 39.0759 80.717 39.2174C80.7753 39.3589 80.8045 39.5107 80.8027 39.6638C80.812 39.9505 80.7112 40.2299 80.5212 40.4448C80.3311 40.6597 80.0661 40.7937 79.7804 40.8195C79.901 40.9402 80.8027 42.3372 80.8027 42.3372H79.5645L78.5422 40.8132V40.0384H79.1771C79.2277 40.0385 79.2778 40.0284 79.3244 40.0088C79.3711 39.9893 79.4133 39.9607 79.4488 39.9246C79.4843 39.8886 79.5122 39.8458 79.531 39.7988C79.5497 39.7519 79.559 39.7016 79.5581 39.6511C79.5608 39.6006 79.5529 39.5501 79.5352 39.5028C79.5175 39.4554 79.4902 39.4123 79.4551 39.3759C79.4199 39.3396 79.3777 39.3109 79.3309 39.2916C79.2842 39.2723 79.234 39.2628 79.1835 39.2637H78.2628V42.3245H77.0245V38.5144H77.0309ZM81.1583 38.5144H81.9457L83.3236 40.0511L84.6952 38.5144H85.4826V42.3245H84.2126V40.4195L83.2918 41.4164L82.3648 40.4195V42.3245H81.0948L81.1583 38.5144ZM76.7134 38.5144V39.2891H75.2973C75.1186 39.3232 74.9573 39.4185 74.8414 39.5588C74.7254 39.6991 74.6621 39.8755 74.6624 40.0575H76.7134V40.8322H74.6624C74.6642 41.0143 74.7282 41.1904 74.8436 41.3313C74.9591 41.4721 75.1191 41.5694 75.2973 41.6069H76.7134V42.3563H74.8783C74.8783 42.3563 73.4305 42.3055 73.4305 40.4067C73.4305 38.5081 74.8783 38.5017 74.8783 38.5017L76.7134 38.5144ZM69.2523 38.5144H70.5222V40.0511H71.8494V38.5144H73.1193V42.3245H71.8494V40.8005H70.4524V42.3245H69.1824L69.2523 38.5144ZM65.6709 38.5144H68.9538V39.2701H67.9315V42.3436H66.6996V39.2701H65.6709V38.5144ZM78.104 25.6426V27.3318H85.1841V25.6426H78.104ZM66.2996 25.6426H73.3797V27.3254H66.2742L66.2996 25.6426ZM151.458 9.34175H180.032V13.3043H151.458V9.34175ZM155.668 28.7225H144.873C144.873 28.7225 137.367 28.9701 137.367 39.5177C137.367 50.313 144.873 50.6559 144.873 50.6559H155.668V46.3505H147.534C146.435 46.2754 145.41 45.7697 144.683 44.9432C143.955 44.1168 143.583 43.0364 143.647 41.9371H155.712V37.5301H143.647C143.615 36.9719 143.695 36.4128 143.884 35.8863C144.072 35.3598 144.365 34.8768 144.744 34.466C145.123 34.0551 145.582 33.7251 146.092 33.4954C146.601 33.2658 147.152 33.1413 147.711 33.1295H155.668V28.7225ZM108.85 0.305463H97.7569C97.7569 0.305463 90.264 0.534069 90.264 11.1007C90.264 21.896 97.7696 22.2389 97.7696 22.2389H108.863V17.9335H100.424C99.3252 17.8584 98.3007 17.3527 97.573 16.5262C96.8453 15.6998 96.4732 14.6195 96.5377 13.5202H108.844V9.11314H96.5377C96.5051 8.5549 96.5855 7.99583 96.7739 7.46934C96.9623 6.94285 97.255 6.45977 97.6343 6.04896C98.0137 5.63816 98.472 5.30807 98.9818 5.07843C99.4917 4.8488 100.043 4.72434 100.602 4.71248H108.856L108.85 0.305463ZM4.99784 25.3886C5.09944 25.1092 5.20738 24.8425 5.32168 24.5758C6.59166 27.0397 8.38868 28.8495 10.446 29.5035C10.0858 29.5699 9.7296 29.6568 9.37925 29.7639C7.49392 28.793 5.95965 27.2564 4.9915 25.3696L4.99784 25.3886ZM6.37576 31.2562C6.55779 31.1292 6.74194 31.0064 6.9282 30.8879C5.89921 30.1451 4.98923 29.2501 4.2295 28.2335C4.1787 28.5066 4.12791 28.7732 4.09616 29.0527C4.76496 29.8703 5.53041 30.6038 6.37576 31.2371V31.2562ZM23.7046 31.5229C23.7082 33.5267 23.4304 35.5211 22.8791 37.4476C23.0103 37.7354 23.1352 38.0276 23.2537 38.3239C24.679 33.9019 24.679 29.1439 23.2537 24.7219C23.1352 25.0224 23.0103 25.3145 22.8791 25.5982C23.4286 27.5185 23.7064 29.5064 23.7046 31.5038V31.5229ZM20.8408 31.5229C20.8381 32.3021 20.7872 33.0804 20.6884 33.8534C20.8725 34.082 21.0567 34.3233 21.2281 34.5709C21.5386 32.5508 21.5386 30.495 21.2281 28.4748C21.0503 28.7224 20.8725 28.9638 20.6884 29.1924C20.7864 29.959 20.8373 30.7309 20.8408 31.5038V31.5229ZM19.012 39.4542C17.4119 42.5912 14.9163 44.655 12.1669 44.655C9.41735 44.655 6.92185 42.5849 5.32168 39.4542C5.23913 39.2891 5.15659 39.1304 5.07404 38.9589C4.99149 38.7875 4.8391 38.4255 4.73115 38.1461C4.36204 37.2184 4.07519 36.2601 3.87391 35.2822C3.81676 35.0028 3.77232 34.7234 3.72787 34.4376C3.68342 34.1518 3.67071 34.0439 3.64531 33.8407C3.44406 32.2935 3.44406 30.7268 3.64531 29.1797C3.64531 28.9765 3.69612 28.7796 3.72787 28.5827C3.75962 28.3859 3.81676 28.0176 3.87391 27.7382C4.07519 26.7603 4.36204 25.8019 4.73115 24.8743C4.8391 24.6012 4.95339 24.3281 5.07404 24.0614C5.19468 23.7947 5.23913 23.7312 5.32168 23.5661C6.92185 20.4291 9.41735 18.3653 12.1669 18.3653C14.9163 18.3653 17.4119 20.4355 19.012 23.5661C19.1263 23.2994 19.2343 23.0327 19.3359 22.7533C17.6278 19.6925 15.0497 17.743 12.1669 17.743C9.28401 17.743 6.69961 19.6989 4.99784 22.7533C4.90894 22.9142 4.82005 23.0793 4.73115 23.2486C4.5978 23.509 4.4708 23.782 4.35015 24.0614C3.94119 25.0063 3.61815 25.986 3.38497 26.9888C3.31724 27.2725 3.25586 27.5583 3.20082 27.8461C3.16273 28.0451 3.12886 28.2568 3.09922 28.4811C2.78877 30.5013 2.78877 32.5571 3.09922 34.5773C3.12886 34.7805 3.16273 34.9922 3.20082 35.2123C3.25586 35.5044 3.31724 35.7902 3.38497 36.0696C3.61815 37.0724 3.94119 38.0522 4.35015 38.997C4.4708 39.2764 4.5978 39.5431 4.73115 39.8098C4.8645 40.0765 4.90259 40.1464 4.99784 40.3051C6.70596 43.3659 9.28401 45.3154 12.1669 45.3154C15.0497 45.3154 17.6341 43.3596 19.3359 40.3051C19.2343 39.9686 19.1454 39.6765 19.012 39.4352V39.4542ZM12.1605 47.4999C9.08716 47.4999 6.29322 45.8235 4.22316 43.0992C4.10039 42.9384 3.98186 42.7754 3.86756 42.6103C3.69823 42.369 3.53525 42.1213 3.37862 41.8673C2.81185 40.9383 2.33352 39.9582 1.9499 38.9399C1.83983 38.652 1.73612 38.3578 1.63875 38.0572C1.57102 37.8498 1.5054 37.6381 1.44191 37.4222C0.34479 33.5507 0.34479 29.4506 1.44191 25.5791C1.5054 25.3632 1.57102 25.1515 1.63875 24.9441C1.73612 24.6435 1.83983 24.3493 1.9499 24.0614C2.33352 23.0431 2.81185 22.063 3.37862 21.134C3.53525 20.88 3.69823 20.6323 3.86756 20.391C3.98186 20.2259 4.10039 20.0629 4.22316 19.9021C6.29322 17.1778 9.08716 15.5014 12.1605 15.5014C15.2338 15.5014 18.0278 17.1778 20.0979 19.9021C20.1487 19.629 20.1995 19.3623 20.2312 19.0829C18.0849 16.4666 15.2529 14.8791 12.1542 14.8791C9.05542 14.8791 6.22972 16.473 4.07711 19.0829C3.95011 19.2353 3.82947 19.3877 3.70882 19.5465C3.58817 19.7052 3.35322 20.0227 3.18812 20.2767C2.57718 21.1927 2.05417 22.1644 1.62606 23.1787C1.50329 23.4666 1.38688 23.7609 1.27681 24.0614C1.20061 24.2731 1.12653 24.4848 1.05456 24.6964C-0.370727 29.1184 -0.370727 33.8765 1.05456 38.2985C1.12653 38.5144 1.20061 38.7261 1.27681 38.9335C1.38688 39.2341 1.50329 39.5283 1.62606 39.8162C2.05417 40.8306 2.57718 41.8022 3.18812 42.7182C3.35957 42.9659 3.53102 43.2135 3.70882 43.4485C3.88661 43.6834 3.95011 43.7597 4.07711 43.9121C6.22337 46.5283 9.05542 48.1159 12.1542 48.1159C15.2529 48.1159 18.0786 46.522 20.2312 43.9121C20.1931 43.6326 20.1423 43.3659 20.0979 43.0929C18.0341 45.8234 15.2402 47.4999 12.1605 47.4999ZM12.1605 2.84553C7.03615 2.84553 2.86428 9.01789 2.86428 16.6C2.86505 17.6205 2.94359 18.6395 3.09922 19.6481C3.27702 19.4004 3.45482 19.1591 3.63897 18.9305C3.54016 18.1575 3.48926 17.3792 3.48657 16.6C3.48657 9.48145 7.4616 3.46785 12.1605 3.46785C16.8594 3.46785 20.8344 9.48145 20.8344 16.6C20.8318 17.3792 20.7809 18.1575 20.682 18.9305C20.682 19.1337 20.6312 19.3305 20.5995 19.5274C20.5677 19.7243 20.5106 20.0926 20.4534 20.372C20.2522 21.3499 19.9653 22.3082 19.5962 23.2359C19.4883 23.509 19.374 23.782 19.2533 24.0487C19.1327 24.3154 19.0882 24.3789 19.0057 24.5441C17.7357 27.0079 15.9387 28.8177 13.8813 29.4718C14.2416 29.5382 14.5978 29.6251 14.9481 29.7321C16.8292 28.7635 18.3609 27.2317 19.3295 25.3505C19.4184 25.1896 19.5073 25.0245 19.5962 24.8552C19.7296 24.5948 19.8566 24.3218 19.9772 24.0424C20.3862 23.0975 20.7092 22.1178 20.9424 21.1149C21.0101 20.8313 21.0715 20.5456 21.1265 20.2577C21.1646 20.0587 21.1985 19.847 21.2281 19.6227C21.3838 18.6141 21.4623 17.5951 21.4631 16.5746C21.4631 9.03694 17.2912 2.84553 12.1605 2.84553ZM12.1605 -0.0184021C5.45503 -0.0184021 0.000489929 7.43671 0.000489929 16.6063C-0.00688867 18.9156 0.353202 21.2113 1.06727 23.4074C1.1858 23.1068 1.31067 22.8147 1.44191 22.531C0.890649 20.6045 0.612779 18.6102 0.616429 16.6063C0.616429 7.78597 5.79158 0.603921 12.1542 0.603921C18.5167 0.603921 23.6919 7.77962 23.6919 16.6063C23.6955 18.6102 23.4177 20.6045 22.8664 22.531C22.8029 22.7469 22.7373 22.9586 22.6696 23.1661C22.5722 23.4666 22.4685 23.7609 22.3584 24.0487C21.9748 25.0671 21.4965 26.0472 20.9297 26.9762C20.7731 27.2302 20.6101 27.4778 20.4407 27.7191C20.3264 27.8842 20.2079 28.0472 20.0852 28.2081C19.3254 29.2247 18.4154 30.1197 17.3865 30.8625C17.5727 30.9768 17.7569 31.0995 17.9389 31.2308C18.785 30.5935 19.5505 29.8557 20.2185 29.0336C20.3455 28.8812 20.4662 28.7288 20.5868 28.5701C20.7074 28.4113 20.9424 28.0938 21.1075 27.8398C21.7184 26.9238 22.2414 25.9522 22.6696 24.9378C22.7923 24.6499 22.9087 24.3556 23.0188 24.0551C23.095 23.8434 23.1691 23.6317 23.241 23.4201C23.9551 21.224 24.3152 18.9283 24.3078 16.619C24.3269 7.4621 18.8723 0.000647619 12.1605 0.000647619V-0.0184021ZM21.2281 43.3151C21.1985 43.1119 21.1646 42.9003 21.1265 42.6801C21.0715 42.388 21.0101 42.1023 20.9424 41.8228C20.7092 40.82 20.3862 39.8403 19.9772 38.8954C19.8566 38.616 19.7296 38.3493 19.5962 38.0826C19.4629 37.8159 19.4248 37.746 19.3295 37.5873C18.3609 35.7061 16.8292 34.1743 14.9481 33.2057C14.7306 33.1054 14.508 33.0164 14.2814 32.939C12.9093 32.4527 11.4118 32.4527 10.0396 32.939C9.81298 33.0164 9.59043 33.1054 9.37291 33.2057C7.49184 34.1743 5.96012 35.7061 4.9915 37.5873C5.09309 37.8667 5.20104 38.1334 5.31534 38.4001C6.58531 35.9362 8.38232 34.1264 10.4397 33.4724C11.5602 33.1085 12.7671 33.1085 13.8877 33.4724C15.945 34.1074 17.7547 35.9362 19.012 38.4001C19.0946 38.5652 19.1771 38.724 19.2597 38.8954C19.3422 39.0669 19.4946 39.4288 19.6026 39.7082C19.9717 40.6359 20.2585 41.5942 20.4598 42.5722C20.517 42.8516 20.5614 43.131 20.6058 43.4167C20.6503 43.7025 20.663 43.8104 20.6884 44.0136C20.7872 44.7866 20.8381 45.5649 20.8408 46.3442C20.8408 53.4627 16.8658 59.4763 12.1669 59.4763C7.46794 59.4763 3.49292 53.4627 3.49292 46.3442C3.49561 45.5649 3.5465 44.7866 3.64531 44.0136C3.46117 43.785 3.27703 43.5437 3.10558 43.2961C2.94995 44.3047 2.8714 45.3236 2.87063 46.3442C2.87063 53.9326 7.0425 60.0986 12.1669 60.0986C17.2912 60.0986 21.4631 53.9263 21.4631 46.3442C21.4604 45.3364 21.3818 44.3302 21.2281 43.3342V43.3151ZM23.2601 39.5622C23.1881 39.3463 23.1141 39.1346 23.0379 38.9272C22.9278 38.6266 22.8114 38.3324 22.6886 38.0445C22.2605 37.0301 21.7374 36.0584 21.1265 35.1425C20.9551 34.8948 20.7836 34.6471 20.6058 34.4122C20.4281 34.1772 20.3646 34.101 20.2376 33.9486C19.5695 33.1266 18.8041 32.3888 17.9579 31.7515L17.5833 31.4848C17.397 31.3578 17.2087 31.2371 17.0182 31.1228C16.1719 30.6132 15.2535 30.2343 14.2941 29.9988C12.9011 29.6545 11.4453 29.6545 10.0523 29.9988C9.09293 30.2343 8.17456 30.6132 7.32825 31.1228C7.13775 31.2371 6.94937 31.3578 6.76311 31.4848L6.38847 31.7515C5.54236 32.3888 4.77688 33.1266 4.10886 33.9486C4.14696 34.2281 4.19776 34.4947 4.2422 34.7678C5.00193 33.7512 5.91191 32.8562 6.9409 32.1134L7.33459 31.8467C7.53356 31.7155 7.74522 31.5948 7.96958 31.4848C9.26019 30.7499 10.7198 30.3634 12.205 30.3634C13.6901 30.3634 15.1497 30.7499 16.4403 31.4848C16.6478 31.5991 16.8594 31.7197 17.0753 31.8467L17.469 32.1134C18.498 32.8562 19.408 33.7512 20.1677 34.7678C20.2905 34.9287 20.409 35.0917 20.5233 35.2568C20.6926 35.4981 20.8556 35.7457 21.0122 35.9997C21.579 36.9287 22.0573 37.9088 22.441 38.9272C22.551 39.215 22.6547 39.5093 22.7521 39.8098C22.8198 40.0173 22.8855 40.2289 22.949 40.4449C23.5002 42.3713 23.7781 44.3657 23.7744 46.3696C23.7744 55.1899 18.5993 62.372 12.2367 62.372C5.87412 62.372 0.698971 55.1963 0.698971 46.3696C0.695321 44.3657 0.9732 42.3713 1.52446 40.4449C1.39323 40.157 1.26835 39.8649 1.14982 39.5685C0.435753 41.7646 0.0756532 44.0603 0.0830318 46.3696C0.0830318 55.5329 5.53758 62.9943 12.2431 62.9943C18.9485 62.9943 24.4031 55.5392 24.4031 46.3696C24.3845 44.0605 23.9987 41.7691 23.2601 39.5812V39.5622Z" fill="#1018A8"/>
</svg>
