<svg width="55" height="55" viewBox="0 0 55 55" fill="none" xmlns="http://www.w3.org/2000/svg">
<path d="M43.7207 38.3496C40.3148 38.3496 37.5439 35.5788 37.5439 32.1729C37.5439 28.7669 40.3148 25.9961 43.7207 25.9961C47.1266 25.9961 49.8975 28.7669 49.8975 32.1729C49.8975 35.5788 47.1266 38.3496 43.7207 38.3496Z" fill="#353A83"/>
<path d="M11.2793 38.3496C7.87338 38.3496 5.10254 35.5788 5.10254 32.1729C5.10254 28.7669 7.87338 25.9961 11.2793 25.9961C14.6852 25.9961 17.4561 28.7669 17.4561 32.1729C17.4561 35.5788 14.6852 38.3496 11.2793 38.3496Z" fill="#353A83"/>
<path d="M38.2422 4.29688C36.206 4.29688 34.3754 3.16551 33.4649 1.34449L33.2382 0.89085C32.9652 0.344824 32.4072 0 31.7969 0H23.2031C22.5928 0 22.0348 0.344824 21.7618 0.890742L21.5351 1.34428C20.6246 3.16551 18.794 4.29688 16.7578 4.29688C15.8679 4.29688 15.1465 5.01832 15.1465 5.9082V15.1032C15.1465 18.7184 16.2872 22.1624 18.4452 25.0629C20.6032 27.9633 23.5743 30.0456 27.037 31.0843C27.188 31.1297 27.344 31.1523 27.5 31.1523C27.656 31.1523 27.812 31.1297 27.963 31.0843C31.4257 30.0456 34.3968 27.9633 36.5548 25.0629C38.7128 22.1624 39.8535 18.7184 39.8535 15.1032V5.9082C39.8535 5.01832 39.1321 4.29688 38.2422 4.29688ZM33.1969 13.6772L27.1203 19.7538C26.8056 20.0684 26.3932 20.2258 25.9809 20.2258C25.5687 20.2258 25.1562 20.0686 24.8416 19.7538L21.8033 16.7155C21.174 16.0862 21.174 15.066 21.8033 14.4367C22.4325 13.8075 23.4528 13.8075 24.0821 14.4367L25.9811 16.3356L30.9184 11.3984C31.5475 10.7692 32.5678 10.7692 33.1971 11.3984C33.8262 12.0277 33.8262 13.0479 33.1969 13.6772Z" fill="#353A83"/>
<path d="M50.3099 38.8689C48.6123 40.5396 46.2851 41.5723 43.7207 41.5723C41.1522 41.5723 38.8215 40.5364 37.1233 38.8608C36.2218 39.5103 35.4194 40.2892 34.7454 41.173L35.6307 41.9485C38.3143 44.299 39.8535 47.6857 39.8535 51.2403V55H53.3886C54.2785 55 55 54.2786 55 53.3887V48.0176C55 44.2561 53.1488 40.9193 50.3099 38.8689Z" fill="#353A83"/>
<path d="M4.69004 38.8689C1.8512 40.9193 0 44.2561 0 48.0176V53.3887C0 54.2786 0.721445 55 1.61133 55H15.1465V51.2403C15.1465 47.6857 16.6856 44.299 19.3692 41.9485L20.2546 41.173C19.5805 40.2892 18.7782 39.5103 17.8767 38.8608C16.1785 40.5364 13.8478 41.5723 11.2793 41.5723C8.71492 41.5723 6.38763 40.5396 4.69004 38.8689Z" fill="#353A83"/>
<path d="M33.5075 44.3728C31.9911 45.9551 29.8594 46.9434 27.5 46.9434C25.1406 46.9434 23.0089 45.9551 21.4925 44.3728C19.5802 46.0477 18.3691 48.5045 18.3691 51.2403V55H36.6309V51.2403C36.6309 48.5045 35.4198 46.0477 33.5075 44.3728Z" fill="#353A83"/>
<path d="M27.5 43.7207C24.6864 43.7207 22.3975 41.4318 22.3975 38.6182C22.3975 35.8046 24.6864 33.5156 27.5 33.5156C30.3136 33.5156 32.6025 35.8046 32.6025 38.6182C32.6025 41.4318 30.3136 43.7207 27.5 43.7207Z" fill="#353A83"/>
</svg>
