<svg width="45" height="45" viewBox="0 0 45 45" fill="none" xmlns="http://www.w3.org/2000/svg">
<path d="M18.5449 23.8184H26.4551V26.4551H18.5449V23.8184Z" fill="#353A83"/>
<path d="M36.5079 26.4552H29.0918V27.7735C29.0918 28.5021 28.502 29.0919 27.7734 29.0919H17.2266C16.498 29.0919 15.9082 28.5021 15.9082 27.7735V26.4552H8.49209C6.78749 26.4552 5.27996 25.3685 4.74026 23.7515L0 9.52832V38.3204C0 40.5012 1.77429 42.2755 3.95508 42.2755H41.0449C43.2257 42.2755 45 40.5012 45 38.3204V9.52935L40.2594 23.7515C39.72 25.3685 38.2125 26.4552 36.5079 26.4552Z" fill="#353A83"/>
<path d="M27.7734 2.72461H17.2265C15.0458 2.72461 13.2715 4.4989 13.2715 6.67969V7.99805H2.26831L7.24065 22.9171C7.4209 23.4565 7.92421 23.8184 8.49206 23.8184H15.9082V22.5C15.9082 21.7715 16.498 21.1816 17.2265 21.1816H27.7734C28.5019 21.1816 29.0918 21.7715 29.0918 22.5V23.8184H36.5079C37.0757 23.8184 37.5791 23.4565 37.7593 22.9171L42.732 7.99805H31.7285V6.67969C31.7285 4.4989 29.9542 2.72461 27.7734 2.72461ZM15.9082 7.99805V6.67969C15.9082 5.95219 16.499 5.36133 17.2265 5.36133H27.7734C28.5009 5.36133 29.0918 5.95219 29.0918 6.67969V7.99805H15.9082Z" fill="#353A83"/>
</svg>
