<svg width="48" height="48" viewBox="0 0 48 48" fill="none" xmlns="http://www.w3.org/2000/svg">
<path d="M44.3346 21.2941L37.188 17.5638L38.488 15.0703L41.3145 16.5458C40.1074 13.771 38.2299 11.2943 35.8477 9.37976C32.4928 6.68372 28.4403 5.25879 24.1278 5.25879C19.4711 5.25879 15.0077 6.97925 11.5591 10.1041C8.13464 13.2067 5.98315 17.4349 5.50085 22.0096L2.70557 21.7148C3.26038 16.4509 5.7345 11.5873 9.67236 8.01929C13.6388 4.42529 18.7723 2.44629 24.1278 2.44629C29.0164 2.44629 33.8038 4.13013 37.608 7.18689C40.4421 9.46436 42.6552 12.4354 44.0361 15.7628L45.4017 13.129C41.4364 5.33752 33.3417 0 24 0C10.745 0 0 10.745 0 24C0 26.291 0.321533 28.5066 0.920654 30.605L3.66541 25.3121L10.812 29.0424L9.51196 31.5359L6.36145 29.8916C7.42236 33.0952 9.34094 35.9821 11.9297 38.2137C15.3171 41.1335 19.649 42.7412 24.1278 42.7412C28.9786 42.7412 33.579 40.8933 37.0811 37.5374C40.5725 34.192 42.6174 29.6957 42.8386 24.876L45.6467 25.0052C45.3922 30.5493 43.0408 35.7213 39.0256 39.5687C34.9977 43.4282 29.7067 45.5537 24.1278 45.5537C18.976 45.5537 13.9922 43.704 10.095 40.3447C7.21545 37.8622 5.05627 34.674 3.81445 31.1323L2.23279 34.1184C6.05017 42.3164 14.3606 48 24 48C37.255 48 48 37.255 48 24C48 21.3882 47.5811 18.8745 46.8098 16.5205L44.3346 21.2941ZM19.9548 21.8621C19.9548 22.8409 19.574 23.7616 18.8818 24.4537C18.2703 25.0657 17.48 25.4344 16.6285 25.5114L15.9979 25.5271C15.5314 25.5311 15.1527 25.912 15.1527 26.3796V27.8804H19.9299V30.6929H12.3417V26.3796C12.3417 24.4519 13.8373 22.868 15.728 22.726L16.299 22.7142C16.5238 22.7124 16.7351 22.6241 16.894 22.4652C17.0552 22.3037 17.1438 22.0898 17.1438 21.8621V21.0498C17.1438 20.67 16.8351 20.3613 16.4557 20.3613H12.9668V17.5488H16.4557C18.3853 17.5488 19.9548 19.1195 19.9548 21.0498V21.8621ZM28.5132 30.5409H25.7021V25.6088H21.2791V17.6638H24.0901V22.7963H25.7021V21.29H28.5132V30.5409ZM36.4709 26.3068H33.6599V23.8883H32.9099V26.202H30.0989V17.6638H32.9099V21.0758H36.4706V26.3068H36.4709Z" fill="#353A83"/>
</svg>
