<svg width="49" height="49" viewBox="0 0 49 49" fill="none" xmlns="http://www.w3.org/2000/svg">
<g clip-path="url(#clip0)">
<path d="M48.9571 27.5625H43.5446C42.7402 27.5625 41.9501 27.8891 41.3805 28.4588L38.1935 31.6458H48.849C48.9388 30.6862 49.0001 29.6531 49.0001 28.5833C49 28.226 48.9755 27.8994 48.9571 27.5625Z" fill="#353A83"/>
<path d="M15.4492 27.5625L18.8527 31.6459H30.1472L33.5507 27.5625H15.4492Z" fill="#353A83"/>
<path d="M7.6195 28.4588C7.04987 27.8891 6.25975 27.5625 5.45537 27.5625H0.042875C0.0245 27.8994 0 28.226 0 28.5834C0 29.6532 0.06125 30.6862 0.151115 31.6459H10.8066L7.6195 28.4588Z" fill="#353A83"/>
<path d="M34.7859 33.0567C34.6286 32.675 34.7165 32.236 35.0064 31.944L39.935 27.0154C40.9007 26.0517 42.1808 25.5209 43.5446 25.5209H48.7345C48.1914 22.683 46.7867 20.776 44.3674 19.5123C41.554 18.0402 35.2391 17.3542 24.4999 17.3542C13.7606 17.3542 7.44586 18.0402 4.63238 19.5123C2.21301 20.776 0.808374 22.683 0.265259 25.5209H5.45514C6.81901 25.5209 8.09913 26.0517 9.06478 27.0154L13.9934 31.944C14.2854 32.236 14.3731 32.6749 14.2139 33.0567C14.0546 33.4386 13.6832 33.6876 13.2708 33.6876H0.40422C0.692095 35.6047 1.03098 36.9216 1.05548 37.0135C1.17386 37.4606 1.57811 37.771 2.0416 37.771H10.9882L14.8572 39.7045C14.9981 39.776 15.1553 39.8127 15.3125 39.8127H33.6875C33.8447 39.8127 34.0019 39.776 34.1448 39.7045L38.0138 37.771H46.9583C47.4218 37.771 47.8261 37.4606 47.9445 37.0135C47.969 36.9216 48.3078 35.6047 48.5957 33.6876H35.7291C35.3167 33.6876 34.9431 33.4385 34.7859 33.0567ZM31.409 33.3201C31.215 33.5529 30.9271 33.6876 30.625 33.6876H18.375C18.0728 33.6876 17.785 33.5529 17.591 33.3201L12.4868 27.1951C12.2316 26.8909 12.1786 26.4662 12.346 26.109C12.5155 25.7496 12.8747 25.521 13.2708 25.521H35.7292C36.1253 25.521 36.4846 25.7496 36.6541 26.109C36.8215 26.4662 36.7684 26.891 36.5132 27.1951L31.409 33.3201Z" fill="#353A83"/>
<path d="M44.833 20.0105C43.6712 17.34 39.784 8.53836 38.4324 7.38887C36.748 5.95763 31.9235 5.10425 25.5209 5.10425H23.4792C17.0766 5.10425 12.2521 5.95763 10.5677 7.38686C9.21611 8.53635 5.32673 17.338 4.1671 20.0085C3.94459 20.5271 4.18136 21.1273 4.69796 21.3519C5.21246 21.5765 5.81683 21.3416 6.04135 20.8231C8.34636 15.5168 11.166 9.62048 11.8907 8.94472C12.6767 8.27709 16.0026 7.14598 23.4792 7.14598H25.5209C32.9975 7.14598 36.3233 8.27709 37.1052 8.9406C37.8341 9.62048 40.6536 15.5147 42.9587 20.8231C43.1261 21.209 43.5039 21.4376 43.8959 21.4376C44.0306 21.4376 44.1715 21.4111 44.3021 21.3539C44.8186 21.1294 45.0555 20.527 44.833 20.0105Z" fill="#353A83"/>
<path d="M13.2709 36.7501C12.7421 36.7501 12.3235 37.1564 12.2705 37.6709L4.08336 36.8521V36.7501C4.08336 36.1866 3.62599 35.7292 3.06249 35.7292C2.49899 35.7292 2.04163 36.1866 2.04163 36.7501V40.8335C2.04163 42.522 3.41564 43.896 5.10413 43.896H11.2291C12.9176 43.896 14.2916 42.522 14.2916 40.8335V37.771C14.2916 37.2075 13.8344 36.7501 13.2709 36.7501Z" fill="#353A83"/>
<path d="M45.9375 35.7292C45.374 35.7292 44.9166 36.1866 44.9166 36.7501V36.8522L36.7295 37.671C36.6764 37.1565 36.2579 36.7502 35.7291 36.7502C35.1656 36.7502 34.7083 37.2076 34.7083 37.7711V40.8336C34.7083 42.5221 36.0823 43.8961 37.7708 43.8961H43.8958C45.5842 43.8961 46.9583 42.5221 46.9583 40.8336V36.7501C46.9583 36.1866 46.501 35.7292 45.9375 35.7292Z" fill="#353A83"/>
</g>
<defs>
<clipPath id="clip0">
<rect width="49" height="49" fill="white"/>
</clipPath>
</defs>
</svg>
