<svg width="49" height="49" viewBox="0 0 49 49" fill="none" xmlns="http://www.w3.org/2000/svg">
<g clip-path="url(#clip0)">
<path d="M14.7013 25.3167C16.9563 25.3167 18.7843 23.4887 18.7843 21.2337C18.7843 18.9787 16.9563 17.1506 14.7013 17.1506C12.4463 17.1506 10.6183 18.9787 10.6183 21.2337C10.6183 23.4887 12.4463 25.3167 14.7013 25.3167Z" fill="#353A83"/>
<path d="M28.6838 19.4656L28.1694 19.4011C26.8473 19.2353 25.7522 18.4032 25.3096 17.2281C25.2329 17.0248 25.1504 16.8239 25.0614 16.6238C24.5322 15.4349 24.7307 14.0189 25.5791 12.9288L25.8388 12.5948C26.0912 12.2698 26.0626 11.8076 25.7711 11.516L24.4172 10.1621C24.1265 9.8714 23.6635 9.84288 23.3376 10.0951L23.0044 10.354C21.9151 11.2024 20.4983 11.4017 19.3094 10.8717C19.1093 10.7827 18.9076 10.7002 18.7043 10.6235C17.53 10.1809 16.6971 9.08497 16.5321 7.76371L16.4676 7.24926C16.417 6.84093 16.0691 6.53394 15.6575 6.53394H13.7426C13.331 6.53394 12.9831 6.84016 12.9325 7.24926L12.868 7.76371C12.7023 9.08574 11.8701 10.1816 10.6958 10.6235C10.4917 10.7002 10.29 10.7827 10.0908 10.8717C8.90098 11.3984 7.48498 11.2017 6.39568 10.354L6.06247 10.0943C5.73749 9.8403 5.27443 9.86967 4.9837 10.1613L3.62818 11.5152C3.3367 11.8059 3.30808 12.2681 3.56043 12.5939L3.82015 12.9279C4.66858 14.0181 4.86619 15.4341 4.33786 16.6238C4.24886 16.8239 4.16637 17.0248 4.08962 17.2281C3.64704 18.4024 2.55114 19.2353 1.22987 19.4003L0.715416 19.4648C0.307085 19.5155 0 19.8633 0 20.2749V22.1898C0 22.6014 0.30699 22.9493 0.715321 22.9999L1.22892 23.0644C2.55094 23.2301 3.64684 24.0623 4.08943 25.2373C4.16618 25.4407 4.24867 25.6416 4.33767 25.8417C4.866 27.0307 4.66839 28.4466 3.81996 29.5367L3.5611 29.8707C3.30799 30.1957 3.33737 30.6579 3.62885 30.9495L4.98275 32.3034C5.27347 32.5957 5.73644 32.6243 6.06152 32.3711L6.39473 32.1123C7.48489 31.2638 8.90089 31.0646 10.0898 31.5946C10.2899 31.6836 10.4915 31.766 10.6949 31.8428C11.8692 32.2854 12.7021 33.3813 12.8671 34.7025L12.9316 35.217C12.9822 35.6253 13.33 35.9323 13.7416 35.9323H15.6566C16.0682 35.9323 16.416 35.6261 16.4666 35.217L16.5311 34.7025C16.6961 33.3805 17.529 32.2846 18.7033 31.8428C18.9074 31.766 19.1092 31.6836 19.3084 31.5946C20.4973 31.0662 21.9133 31.2638 23.0043 32.1123L23.3375 32.3711C23.6618 32.6235 24.1247 32.5949 24.4163 32.3034L25.7702 30.9495C26.0626 30.6588 26.0919 30.1974 25.8388 29.8716L25.5791 29.5376C24.7307 28.4474 24.5322 27.0314 25.0614 25.8417C25.1496 25.6416 25.2329 25.4407 25.3096 25.2373C25.7522 24.0631 26.8481 23.2301 28.1694 23.0652L28.6838 23.0007C29.0922 22.95 29.3992 22.6022 29.3992 22.1906V20.2757C29.3992 19.8642 29.0929 19.5162 28.6838 19.4656ZM14.7013 26.9497C11.5492 26.9497 8.9851 24.3856 8.9851 21.2336C8.9851 18.0815 11.5492 15.5174 14.7013 15.5174C17.8533 15.5174 20.4174 18.0816 20.4174 21.2336C20.4174 24.3857 17.8533 26.9497 14.7013 26.9497Z" fill="#353A83"/>
<path d="M36.7494 40.0154C38.5534 40.0154 40.0158 38.553 40.0158 36.749C40.0158 34.9451 38.5534 33.4827 36.7494 33.4827C34.9454 33.4827 33.483 34.9451 33.483 36.749C33.483 38.553 34.9454 40.0154 36.7494 40.0154Z" fill="#353A83"/>
<path d="M48.283 35.1501L47.8592 35.097C46.8237 34.9671 45.9663 34.3172 45.6208 33.4009C45.5571 33.231 45.4877 33.062 45.4135 32.8938C44.9995 31.9629 45.1562 30.8531 45.8218 29.9982L46.0358 29.7238C46.2889 29.3988 46.2595 28.9358 45.9688 28.6451L44.8533 27.5304C44.5626 27.2389 44.1004 27.2103 43.7754 27.4626L43.5002 27.6766C42.6443 28.3422 41.5346 28.4982 40.6036 28.0849C40.4363 28.0107 40.268 27.9421 40.0973 27.8776C39.1803 27.5321 38.5303 26.6747 38.4012 25.6401L38.3481 25.2163C38.2975 24.8072 37.9496 24.501 37.5381 24.501H35.9612C35.5496 24.501 35.2018 24.8072 35.1503 25.2163L35.098 25.6401C34.9682 26.6756 34.3182 27.533 33.4012 27.8784C33.2313 27.9429 33.0623 28.0116 32.8957 28.0858C31.9639 28.4982 30.855 28.343 29.9984 27.6767L29.7241 27.4636C29.3991 27.2113 28.9369 27.2415 28.6462 27.5314L27.5315 28.646C27.24 28.9367 27.2114 29.3997 27.4638 29.7248L27.6777 29.9991C28.3433 30.8549 28.5 31.9647 28.0861 32.8956C28.0117 33.063 27.9432 33.2321 27.8795 33.4011C27.534 34.3181 26.6758 34.9681 25.6404 35.098L25.2165 35.1511C24.8082 35.2017 24.5012 35.5495 24.5012 35.9611V37.538C24.5012 37.9496 24.8074 38.2974 25.2165 38.3481L25.6404 38.4012C26.6758 38.531 27.5332 39.181 27.8787 40.0973C27.9432 40.2671 28.0118 40.4361 28.0861 40.6044C28.5 41.5353 28.3433 42.645 27.6777 43.5L27.4638 43.7743C27.2106 44.0993 27.24 44.5624 27.5315 44.8531L28.6462 45.9678C28.9376 46.2585 29.3991 46.2879 29.7241 46.0355L29.9993 45.8216C30.8551 45.156 31.9649 45 32.8958 45.4132C33.0632 45.4876 33.2314 45.5561 33.4013 45.6206C34.3183 45.966 34.9683 46.8235 35.0981 47.858L35.1504 48.2819C35.201 48.691 35.5488 48.9972 35.9613 48.9972H37.5382C37.9497 48.9972 38.2976 48.691 38.3482 48.2819L38.4005 47.858C38.5303 46.8226 39.1803 45.9652 40.0982 45.619C40.268 45.5545 40.437 45.4859 40.6036 45.4116C41.5346 44.9976 42.6443 45.1535 43.5002 45.8207L43.7745 46.0338C44.0995 46.2861 44.5617 46.2568 44.8524 45.9661L45.9678 44.8514C46.2586 44.5607 46.2879 44.0977 46.0348 43.7726L45.8209 43.4983C45.1553 42.6425 44.9993 41.5327 45.4125 40.6018C45.4869 40.4344 45.5563 40.2653 45.6199 40.0963C45.9654 39.1793 46.8235 38.5293 47.8582 38.3994L48.282 38.3463C48.6904 38.2957 48.9966 37.9479 48.9966 37.5363V35.9594C48.9984 35.5486 48.6913 35.2016 48.283 35.1501ZM36.7494 41.6486C34.0482 41.6486 31.8498 39.4511 31.8498 36.749C31.8498 34.0468 34.0482 31.8494 36.7494 31.8494C39.4516 31.8494 41.649 34.0468 41.649 36.749C41.649 39.4511 39.4507 41.6486 36.7494 41.6486Z" fill="#353A83"/>
<path d="M38.3825 12.2511C39.2845 12.2511 40.0157 11.5199 40.0157 10.6178C40.0157 9.71584 39.2845 8.98462 38.3825 8.98462C37.4805 8.98462 36.7493 9.71584 36.7493 10.6178C36.7493 11.5199 37.4805 12.2511 38.3825 12.2511Z" fill="#353A83"/>
<path d="M48.283 9.13167L47.9197 9.08592C47.0884 8.98219 46.3722 8.43998 46.0962 7.70591C46.0407 7.55806 45.9802 7.41107 45.9157 7.26657C45.5785 6.50799 45.7066 5.60234 46.2505 4.90338L46.4343 4.66816C46.6874 4.34318 46.6589 3.88097 46.3673 3.58939L45.4119 2.63397C45.1211 2.34325 44.6582 2.31464 44.3331 2.56622L44.0971 2.74995C43.3981 3.29379 42.4916 3.42278 41.7339 3.08556C41.5878 3.0202 41.4408 2.96058 41.2938 2.90507C40.5483 2.62421 40.0191 1.92516 39.9138 1.0816L39.8689 0.71825C39.8183 0.309919 39.4705 0.00292969 39.058 0.00292969H37.7065C37.2949 0.00292969 36.9471 0.309919 36.8964 0.71825L36.8516 1.08084C36.7478 1.91214 36.2056 2.62832 35.4732 2.90431C35.3246 2.95981 35.1767 3.02029 35.0313 3.08556C34.2735 3.42202 33.3671 3.29465 32.6673 2.74995L32.4313 2.56708C32.1063 2.31397 31.6441 2.34334 31.3534 2.63483L30.398 3.59025C30.1065 3.88174 30.0779 4.34395 30.331 4.66902L30.5139 4.90424C31.0577 5.60406 31.1867 6.50972 30.8495 7.26743C30.785 7.41279 30.7254 7.55892 30.669 7.70753C30.393 8.4417 29.6768 8.98305 28.8455 9.08679L28.4822 9.13253C28.0738 9.18315 27.7668 9.531 27.7668 9.94259V11.2941C27.7668 11.7057 28.0731 12.0535 28.4822 12.1041L28.8455 12.1499C29.6776 12.2536 30.393 12.7958 30.6698 13.5299C30.7253 13.6777 30.7857 13.8247 30.8502 13.9692C31.1875 14.7278 31.0585 15.6335 30.5146 16.3324L30.3318 16.5677C30.0786 16.8926 30.1072 17.3548 30.3987 17.6464L31.3542 18.6018C31.6449 18.8933 32.1079 18.9228 32.4329 18.6696L32.6689 18.4859C33.368 17.942 34.2735 17.8138 35.0321 18.1503C35.1782 18.2156 35.3252 18.2752 35.4722 18.3307C36.2178 18.6116 36.7469 19.3107 36.8515 20.1542L36.8972 20.5176C36.9478 20.9259 37.2957 21.2329 37.7073 21.2329H39.0588C39.4704 21.2329 39.8182 20.9259 39.8697 20.5176L39.9146 20.155C40.0199 19.3107 40.549 18.6116 41.293 18.3315C41.4416 18.276 41.5894 18.2155 41.7348 18.1503C42.4926 17.813 43.399 17.9412 44.0988 18.4859L44.3348 18.6687C44.6598 18.9211 45.122 18.8917 45.4136 18.601L46.369 17.6456C46.6605 17.3541 46.6891 16.8919 46.436 16.5668L46.2531 16.3316C45.7084 15.6318 45.5803 14.7261 45.9175 13.9684C45.982 13.823 46.0425 13.6769 46.098 13.5283C46.3749 12.7941 47.0902 12.2528 47.9222 12.149L48.2856 12.1033C48.6939 12.0527 49.0002 11.7048 49.0002 11.2932V9.94172C48.9984 9.53014 48.6913 9.18315 48.283 9.13167ZM38.3826 13.8843C36.5811 13.8843 35.1162 12.4193 35.1162 10.6179C35.1162 8.81654 36.5812 7.35155 38.3826 7.35155C40.184 7.35155 41.6489 8.81654 41.6489 10.6179C41.6489 12.4193 40.1832 13.8843 38.3826 13.8843Z" fill="#353A83"/>
</g>
<defs>
<clipPath id="clip0">
<rect width="49" height="49" fill="white"/>
</clipPath>
</defs>
</svg>
