<svg width="58" height="58" viewBox="0 0 58 58" fill="none" xmlns="http://www.w3.org/2000/svg">
<g clip-path="url(#clip0)">
<path d="M51.5638 26.2513L50.8518 25.2783C50.0686 24.2103 50.0568 22.7626 50.8281 21.6828L51.5282 20.6979C52.5962 19.1909 52.0978 17.0787 50.4721 16.2005L49.4041 15.631C48.2412 15.0021 47.6004 13.7086 47.8259 12.4033L48.0276 11.2048C48.3362 9.37742 46.9715 7.69241 45.1204 7.62121L43.91 7.57375C42.5929 7.51441 41.4537 6.62444 41.0858 5.35475L40.7536 4.19185C40.2433 2.4119 38.2854 1.48633 36.5766 2.22204L35.4612 2.69669C34.2508 3.21881 32.8388 2.91029 31.9488 1.92538L31.1419 1.02355C29.9078 -0.352946 27.7362 -0.34108 26.5259 1.05914L25.7308 1.97285C24.8646 2.96962 23.4525 3.30188 22.2303 2.80349L21.1148 2.3407C19.4061 1.62873 17.46 2.5899 16.9735 4.36984L16.6531 5.53274C16.309 6.80244 15.1817 7.71614 13.8645 7.7992L12.6542 7.8704C10.803 7.9772 9.46213 9.68595 9.80626 11.5015L10.0199 12.6881C10.2572 13.9934 9.64013 15.2987 8.4891 15.9395L7.433 16.5328C5.80731 17.4346 5.34453 19.5468 6.43623 21.042L7.1482 22.015C7.93138 23.083 7.94325 24.5307 7.17194 25.6105L6.47183 26.5954C5.40386 28.1025 5.90224 30.2147 7.52793 31.0928L8.59589 31.6623C9.75879 32.2913 10.3996 33.5847 10.1741 34.89L9.97238 36.0885C9.66386 37.9159 11.0285 39.6009 12.8796 39.6721L14.09 39.7196C15.4072 39.7789 16.5463 40.6689 16.9142 41.9386L17.2464 43.1015C17.7567 44.8814 19.7146 45.807 21.4234 45.0713L22.5388 44.5966C23.7492 44.0745 25.1613 44.383 26.0512 45.3679L26.8581 46.2698C28.0922 47.6463 30.2638 47.6344 31.4741 46.2342L32.2692 45.3205C33.1354 44.3237 34.5475 43.9914 35.7697 44.4898L36.8852 44.9526C38.5939 45.6646 40.54 44.7034 41.0265 42.9235L41.3469 41.7606C41.691 40.4909 42.8183 39.5772 44.1355 39.4941L45.3458 39.4229C47.197 39.3161 48.5379 37.6074 48.1938 35.7918L47.9802 34.6052C47.7428 33.2999 48.3599 31.9946 49.5109 31.3538L50.567 30.7605C52.1927 29.8705 52.6555 27.7465 51.5638 26.2513ZM28.9822 39.0669C20.4741 39.0669 13.556 32.1489 13.556 23.6407C13.556 15.1326 20.4741 8.21453 28.9822 8.21453C37.4903 8.21453 44.4084 15.1326 44.4084 23.6407C44.4084 32.1489 37.4903 39.0669 28.9822 39.0669Z" fill="#353A83"/>
<path d="M45.0967 42.8523L44.5627 42.8879L44.3017 43.8372C43.5304 46.6495 40.9554 48.6075 38.0481 48.6075C37.1938 48.6075 36.3631 48.4413 35.5799 48.1209L34.6781 47.7412L34.3933 48.0735L38.7957 56.0832C39.0568 56.546 39.5077 56.8783 40.0298 56.9732L45.3341 57.9581C46.1647 58.1124 46.9953 57.6615 47.3157 56.8664L49.3211 51.8588C49.5229 51.3604 49.4873 50.8027 49.2262 50.3399L45.0967 42.8523Z" fill="#353A83"/>
<path d="M22.7523 48.204C21.9336 48.56 21.0792 48.738 20.1892 48.738C17.3176 48.738 14.7544 46.8156 13.9594 44.0626L13.6865 43.1252L12.7372 43.0896L8.75009 50.3518C8.48903 50.8146 8.45343 51.3723 8.65516 51.8707L10.6606 56.8782C10.981 57.6733 11.8116 58.1242 12.6422 57.9699L17.9465 56.985C18.4686 56.8901 18.9195 56.5579 19.1806 56.0951L23.7016 47.8717L23.666 47.8361L22.7523 48.204Z" fill="#353A83"/>
<path d="M37.8699 22.7745C37.8699 22.7745 38.7599 21.3862 37.6089 20.3301C36.1731 19.0129 32.269 19.891 32.269 19.891C31.9961 19.9385 31.7113 19.9978 31.4028 20.069C31.4028 20.069 30.0501 20.6979 31.4028 16.604C32.7556 12.5102 30.501 11.8694 29.5517 11.8694C28.6024 11.8694 28.9228 13.8985 28.9228 13.8985C28.9228 13.8985 26.8936 19.4876 24.9594 20.9708C24.4492 21.5167 24.1644 22.1219 24.022 22.5491C23.7134 22.288 23.3219 22.1337 22.8947 22.1337H20.296C19.3348 22.1337 18.5635 22.9169 18.5635 23.8662V30.7961C18.5635 31.7573 19.3467 32.5286 20.296 32.5286H22.8947C23.2507 32.5286 23.5829 32.4218 23.8558 32.232C23.9152 32.1726 24.2593 31.8285 24.2593 30.8673V26.5599C24.2593 26.726 24.283 31.8997 27.2615 32.2201C28.3294 32.2913 29.6466 32.3506 30.9638 32.3269C32.1623 32.4218 33.4438 32.4337 34.4524 32.2201C37.8937 31.4844 37.0393 29.0874 37.0393 29.0874C38.9023 27.6872 37.8462 25.9428 37.8462 25.9428C39.4838 24.2222 37.8699 22.7745 37.8699 22.7745Z" fill="#353A83"/>
</g>
<defs>
<clipPath id="clip0">
<rect width="58" height="58" fill="white"/>
</clipPath>
</defs>
</svg>
