<svg width="48" height="62" viewBox="0 0 48 62" fill="none" xmlns="http://www.w3.org/2000/svg">
<path d="M23.8995 0.076416L0 10.3183V26.9541C0.00544066 32.513 1.33496 37.9907 3.87848 42.9335C6.422 47.8764 10.1064 52.1422 14.6265 55.3779L23.8995 61.9999L33.1725 55.3816C37.6931 52.1456 41.3778 47.8791 43.9213 42.9356C46.4649 37.992 47.7941 32.5136 47.7989 26.9541V10.3183L23.8995 0.076416ZM44.1221 26.2224C44.133 30.9114 43.0837 35.5421 41.0525 39.7682C39.0214 43.9944 36.0611 47.7067 32.393 50.6275L25.0485 56.5104C24.7224 56.7715 24.3172 56.9137 23.8995 56.9137C23.4818 56.9137 23.0765 56.7715 22.7505 56.5104L15.406 50.6275C11.7378 47.7067 8.77752 43.9944 6.74641 39.7682C4.71529 35.5421 3.66594 30.9114 3.67684 26.2224V14.622C3.67656 14.2545 3.7864 13.8954 3.9922 13.591C4.19799 13.2866 4.49028 13.0508 4.83137 12.9141L23.2156 5.56042C23.6548 5.38582 24.1442 5.38582 24.5834 5.56042L42.9676 12.9141C43.3087 13.0508 43.601 13.2866 43.8067 13.591C44.0125 13.8954 44.1224 14.2545 44.1221 14.622V26.2224Z" fill="white"/>
<path d="M7.3536 15.8668V26.2227C7.34362 30.3596 8.2693 34.4452 10.0614 38.1739C11.8534 41.9025 14.4655 45.1777 17.7021 47.7543L23.8994 52.7143L30.0967 47.7506C33.3328 45.1744 35.9446 41.8999 37.7366 38.1719C39.5287 34.4439 40.4546 30.359 40.4452 26.2227V15.8668L23.8994 9.24854L7.3536 15.8668Z" fill="white"/>
</svg>
