<svg width="60" height="60" viewBox="0 0 60 60" fill="none" xmlns="http://www.w3.org/2000/svg">
<path d="M33.5684 0H26.4317C23.5323 0 21.1779 2.37844 21.2174 5.28668L38.7826 5.29688C38.8276 2.38406 36.4711 0 33.5684 0Z" fill="white"/>
<path d="M17.7012 17.6953H21.1582V21.1523H17.7012V17.6953Z" fill="white"/>
<path d="M17.7012 45.9082H21.1582V49.3652H17.7012V45.9082Z" fill="white"/>
<path d="M17.7012 31.7871H21.1582V35.2441H17.7012V31.7871Z" fill="white"/>
<path d="M48.7405 3.50242L41.5828 3.51391C42.0425 4.57516 42.2988 5.74434 42.2988 6.97258C42.2988 7.94336 41.5118 8.73039 40.541 8.73039H19.459C18.4882 8.73039 17.7012 7.94336 17.7012 6.97258C17.7012 5.74434 17.9575 4.57516 18.4172 3.51391C9.47836 3.49961 11.5794 3.50242 11.2528 3.50242C9.00786 3.50242 7.15149 5.31625 7.15149 7.60398V55.8984C7.15149 58.16 8.99145 59.9999 11.2531 59.9999H48.7471C51.0087 59.9999 52.8486 58.16 52.8486 55.8984V7.60398C52.8486 5.3541 51.0329 3.50242 48.7405 3.50242ZM24.6738 51.123C24.6738 52.0938 23.8868 52.8808 22.916 52.8808H15.9434C14.9726 52.8808 14.1856 52.0938 14.1856 51.123V44.1503C14.1856 43.1795 14.9726 42.3925 15.9434 42.3925H22.916C23.8868 42.3925 24.6738 43.1795 24.6738 44.1503V51.123ZM24.6738 37.0019C24.6738 37.9727 23.8868 38.7597 22.916 38.7597H15.9434C14.9726 38.7597 14.1856 37.9727 14.1856 37.0019V30.0292C14.1856 29.0584 14.9726 28.2714 15.9434 28.2714H22.916C23.8868 28.2714 24.6738 29.0584 24.6738 30.0292V37.0019ZM24.6738 22.9101C24.6738 23.8809 23.8868 24.6679 22.916 24.6679H15.9434C14.9726 24.6679 14.1856 23.8809 14.1856 22.9101V15.9374C14.1856 14.9666 14.9726 14.1796 15.9434 14.1796H22.916C23.8868 14.1796 24.6738 14.9666 24.6738 15.9374V22.9101ZM40.5469 52.8808H30C29.0292 52.8808 28.2422 52.0938 28.2422 51.123C28.2422 50.1522 29.0292 49.3652 30 49.3652H40.5469C41.5177 49.3652 42.3047 50.1522 42.3047 51.123C42.3047 52.0938 41.5177 52.8808 40.5469 52.8808ZM44.0566 45.9081H30C29.0292 45.9081 28.2422 45.1211 28.2422 44.1503C28.2422 43.1795 29.0292 42.3925 30 42.3925H44.0566C45.0274 42.3925 45.8145 43.1795 45.8145 44.1503C45.8145 45.1211 45.0274 45.9081 44.0566 45.9081ZM28.2422 37.0019C28.2422 36.0311 29.0292 35.2441 30 35.2441H40.5469C41.5177 35.2441 42.3047 36.0311 42.3047 37.0019C42.3047 37.9727 41.5177 38.7597 40.5469 38.7597H30C29.0292 38.7597 28.2422 37.9727 28.2422 37.0019ZM44.0566 31.787H30C29.0292 31.787 28.2422 31 28.2422 30.0292C28.2422 29.0584 29.0292 28.2714 30 28.2714H44.0566C45.0274 28.2714 45.8145 29.0584 45.8145 30.0292C45.8145 31 45.0274 31.787 44.0566 31.787ZM28.2422 22.9101C28.2422 21.9393 29.0292 21.1523 30 21.1523H40.5469C41.5177 21.1523 42.3047 21.9393 42.3047 22.9101C42.3047 23.8809 41.5177 24.6679 40.5469 24.6679H30C29.0292 24.6679 28.2422 23.8809 28.2422 22.9101ZM44.0566 17.6952H30C29.0292 17.6952 28.2422 16.9082 28.2422 15.9374C28.2422 14.9666 29.0292 14.1796 30 14.1796H44.0566C45.0274 14.1796 45.8145 14.9666 45.8145 15.9374C45.8145 16.9082 45.0274 17.6952 44.0566 17.6952Z" fill="white"/>
</svg>
