<svg width="55" height="55" viewBox="0 0 55 55" fill="none" xmlns="http://www.w3.org/2000/svg">
<g clip-path="url(#clip0)">
<path d="M0.946582 5.50305C-0.760838 9.09413 -0.165402 13.506 2.80674 16.4781C5.77888 19.4503 10.1907 20.0457 13.7818 18.3383L36.6622 41.2187C34.9544 44.8098 35.5498 49.2216 38.522 52.1938C41.4945 55.1659 45.9064 55.7614 49.4975 54.054L43.0799 47.6359L47.6373 43.0785L54.0549 49.4961C55.7623 45.9054 55.1673 41.4931 52.1948 38.521C49.2226 35.5489 44.8108 34.9534 41.2197 36.6608L18.3393 13.7808C20.0467 10.1902 19.4517 5.7779 16.4795 2.80575C13.507 -0.166812 9.09511 -0.761829 5.50404 0.945591L11.9217 7.36321L7.3642 11.9207L0.946582 5.50305Z" fill="white"/>
<path d="M1.88784 53.1122C4.4047 55.6295 8.48589 55.6295 11.0027 53.1122L25.2324 38.8826L27.5113 41.1615L29.7898 38.8826L16.1175 25.2102L13.8385 27.4887L16.1175 29.7677L1.88784 43.9973C-0.629442 46.5141 -0.629442 50.5953 1.88784 53.1122ZM17.2567 35.4644L19.5352 37.7433L7.58455 49.694L5.30603 47.4151L17.2567 35.4644Z" fill="white"/>
<path d="M41.2039 3.79753L43.9247 6.51833L29.7786 20.664L34.336 25.2219L48.4821 11.0754L51.2025 13.7962L55 3.92132L51.0791 0L41.2039 3.79753Z" fill="white"/>
</g>
<defs>
<clipPath id="clip0">
<rect width="55" height="55" fill="white"/>
</clipPath>
</defs>
</svg>
