<svg width="64" height="64" viewBox="0 0 64 64" fill="none" xmlns="http://www.w3.org/2000/svg">
<path d="M43.7334 11.7334H16V14.9334H43.7334V11.7334Z" fill="white"/>
<path d="M26.6666 23.4666H20.2666V25.5999H26.6666V23.4666Z" fill="white"/>
<path d="M46.2336 30.7733C46.0043 30.5482 45.8784 30.2443 45.8784 29.9199C45.8784 29.5978 46.0043 29.2948 46.2315 29.0665L47.0571 28.2409L39.999 26.1235L41.3494 30.6259L42.1163 33.1817L42.8864 32.4115C43.1573 32.1407 43.5136 32.004 43.8709 32.004C44.2271 32.004 44.5834 32.1395 44.8554 32.4115L47.1999 34.7572L48.7081 33.2478L46.2336 30.7733Z" fill="white"/>
<path d="M16.0011 17.0667V29.8667H38.8938C38.5642 28.7669 38.2336 27.6662 37.904 26.5664C37.7802 26.1558 37.6576 25.745 37.5338 25.3355C37.3771 24.8118 37.199 24.2742 37.6223 23.8134C37.633 23.8017 37.6437 23.791 37.6543 23.7803C38.1898 23.2417 38.9226 23.5744 39.5435 23.76C40.2326 23.9669 40.9206 24.1728 41.6086 24.3798C42.3168 24.592 43.0262 24.8054 43.7345 25.0177V17.0668H16.0011V17.0667ZM28.8 26.6666C28.8 27.2554 28.3221 27.7333 27.7333 27.7333H19.2C18.6112 27.7333 18.1333 27.2554 18.1333 26.6666V22.4C18.1333 21.8113 18.6112 21.3334 19.2 21.3334H27.7333C28.3221 21.3334 28.8 21.8113 28.8 22.4V26.6666Z" fill="white"/>
<path d="M58.6666 41.5999H5.33337H0V45.8655C0 48.2186 1.91462 50.1332 4.26775 50.1332H25.5487C25.296 54.3636 23.5349 56.5332 20.2666 56.5332H18.1332C16.369 56.5332 14.9333 57.969 14.9333 59.7332C14.9333 61.4975 16.369 62.9332 18.1332 62.9332H45.8666C47.6309 62.9332 49.0666 61.4975 49.0666 59.7332C49.0666 57.969 47.6309 56.5332 45.8666 56.5332H43.7332C40.465 56.5332 38.705 54.3636 38.4511 50.1332H59.7323C62.0854 50.1332 64 48.2186 64 45.8655V41.5999H58.6666ZM28.8 43.7332H35.2C35.7887 43.7332 36.2666 44.2111 36.2666 44.7999C36.2666 45.3886 35.7887 45.8665 35.2 45.8665H28.8C28.2112 45.8665 27.7334 45.3886 27.7334 44.7999C27.7334 44.2111 28.2112 43.7332 28.8 43.7332ZM38.5376 56.5332H25.4614C26.7755 55.0784 27.5489 52.9119 27.7035 50.1332H36.2955C36.4513 52.9119 37.2235 55.0782 38.5376 56.5332Z" fill="white"/>
<path d="M6.40002 7.46655V39.4666H57.6V7.46655H6.40002ZM50.9696 34.0032L47.9531 37.0208C47.7526 37.2213 47.4816 37.3333 47.199 37.3333C46.9164 37.3333 46.6444 37.2213 46.4449 37.0208L43.87 34.4448L42.3618 35.9542C42.0951 36.2198 41.709 36.3243 41.3463 36.2347C40.9825 36.1429 40.6935 35.8667 40.5858 35.5062L39.5339 31.9999H14.9344C14.3456 31.9999 13.8678 31.5221 13.8678 30.9333V15.9999V10.6666C13.8678 10.0778 14.3456 9.59993 14.9344 9.59993H44.801C45.3898 9.59993 45.8676 10.0778 45.8676 10.6666V15.9999V25.6576L49.3813 26.7114C49.7408 26.8202 50.017 27.1082 50.1088 27.4719C50.2005 27.8357 50.0938 28.2218 49.8283 28.4874L48.3958 29.9199L50.9706 32.4948C51.3867 32.9119 51.3866 33.5872 50.9696 34.0032Z" fill="white"/>
<path d="M59.7323 1.06665H4.26775C1.91462 1.06665 0 2.9814 0 5.3344V39.4667H4.26662V6.40003C4.26662 5.81128 4.7445 5.3334 5.33325 5.3334H58.6666C59.2554 5.3334 59.7332 5.81128 59.7332 6.40003V39.4667H64V5.3344C64 2.9814 62.0854 1.06665 59.7323 1.06665Z" fill="white"/>
</svg>
